<svg width="58" height="60" viewBox="0 0 58 60" fill="none" xmlns="http://www.w3.org/2000/svg">
<g clip-path="url(#clip0_238_23)">
<path d="M41.0834 60H16.9288C15.5313 59.9992 14.1504 59.6861 12.8807 59.082C11.6111 58.4779 10.4826 57.5971 9.57246 56.5C8.67518 55.4268 8.01262 54.1657 7.63014 52.8031C7.24765 51.4405 7.15427 50.0084 7.35637 48.605C8.65391 41.2937 12.424 34.6987 17.9921 30C12.424 25.2997 8.65462 18.7027 7.35879 11.39C7.15708 9.98754 7.25044 8.55656 7.63249 7.19485C8.01454 5.83315 8.67627 4.57282 9.57246 3.5C10.4826 2.40286 11.6111 1.52211 12.8807 0.918024C14.1504 0.313938 15.5313 0.000784604 16.9288 0L41.0834 0C42.4808 0.00128036 43.8615 0.314655 45.1311 0.918708C46.4007 1.52276 47.5293 2.40325 48.4397 3.5C49.336 4.57237 49.9982 5.83212 50.381 7.1933C50.7639 8.55448 50.8584 9.98508 50.6582 11.3875C49.3491 18.7024 45.5713 25.2986 39.9983 30C45.5681 34.7055 49.3416 41.3043 50.6461 48.62C50.8465 50.0228 50.7521 51.4538 50.3692 52.8155C49.9864 54.1771 49.3241 55.4373 48.4276 56.51C47.5176 57.6033 46.3906 58.481 45.1233 59.0832C43.8559 59.6855 42.478 59.9982 41.0834 60ZM41.0834 5H16.9288C16.2278 4.99955 15.535 5.15568 14.8977 5.45771C14.2604 5.75973 13.6936 6.20054 13.2361 6.75C12.7894 7.27608 12.4593 7.89686 12.2689 8.56883C12.0786 9.2408 12.0326 9.9477 12.1341 10.64C13.0428 16.89 16.7838 22.74 23.2508 28.0325C23.5365 28.2666 23.7674 28.5644 23.9261 28.9039C24.0848 29.2433 24.1673 29.6155 24.1673 29.9925C24.1673 30.3695 24.0848 30.7417 23.9261 31.0811C23.7674 31.4206 23.5365 31.7184 23.2508 31.9525C16.7838 37.25 13.05 43.105 12.1341 49.3525C12.0315 50.046 12.0769 50.7543 12.2673 51.4277C12.4577 52.101 12.7884 52.723 13.2361 53.25C13.6936 53.7995 14.2604 54.2403 14.8977 54.5423C15.535 54.8443 16.2278 55.0004 16.9288 55H41.0834C41.7844 55.0006 42.4773 54.8446 43.1146 54.5425C43.7519 54.2405 44.3187 53.7996 44.776 53.25C45.2226 52.7249 45.5527 52.1049 45.7431 51.4338C45.9335 50.7626 45.9795 50.0565 45.878 49.365C44.9766 43.1475 41.238 37.2925 34.7614 31.96C34.4774 31.7258 34.248 31.4285 34.0904 31.09C33.9328 30.7516 33.851 30.3807 33.851 30.005C33.851 29.6293 33.9328 29.2584 34.0904 28.92C34.248 28.5815 34.4774 28.2842 34.7614 28.05C41.2405 22.7175 44.979 16.8625 45.878 10.6425C45.9792 9.94887 45.9318 9.24073 45.7393 8.56812C45.5468 7.89551 45.2138 7.27485 44.764 6.75C44.3079 6.20201 43.7431 5.76206 43.108 5.46008C42.4729 5.15811 41.7824 5.00119 41.0834 5ZM37.8958 50H20.1019C19.7065 49.9998 19.3171 49.8993 18.968 49.7072C18.6189 49.5151 18.3207 49.2373 18.0996 48.8982C17.8784 48.5591 17.7411 48.1691 17.6996 47.7623C17.6581 47.3555 17.7137 46.9444 17.8616 46.565C19.7541 42.3377 22.6375 38.6666 26.2499 35.885L27.5017 34.855C27.9294 34.5031 28.4597 34.3116 29.0061 34.3116C29.5525 34.3116 30.0828 34.5031 30.5105 34.855L31.7405 35.87C35.3479 38.6625 38.2312 42.335 40.1336 46.56C40.2825 46.9394 40.3389 47.3508 40.298 47.7581C40.2572 48.1654 40.1202 48.5561 39.8992 48.8958C39.6782 49.2355 39.38 49.5138 39.0306 49.7064C38.6813 49.8989 38.2916 49.9997 37.8958 50ZM24.2489 45H33.7415C32.3627 43.1408 30.7705 41.4618 29 40C27.2218 41.4561 25.6258 43.1357 24.2489 45Z" fill="black"/>
</g>
<defs>
<clipPath id="clip0_238_23">
<rect width="58" height="60" fill="white"/>
</clipPath>
</defs>
</svg>
