<svg width="62" height="60" viewBox="0 0 62 60" fill="none" xmlns="http://www.w3.org/2000/svg">
<mask id="path-1-outside-1_435_7" maskUnits="userSpaceOnUse" x="1.16272" y="1" width="58" height="59" fill="black">
<rect fill="white" x="1.16272" y="1" width="58" height="59"/>
<path d="M15.1461 1.9985C14.5778 2.18902 13.6037 3.21307 13.4297 3.82036C13.3254 4.18949 13.2906 7.26164 13.2906 16.4186V28.5166H11.1104C9.53321 28.5166 8.74462 28.5643 8.24596 28.6953C5.27717 29.4931 3.43327 32.6128 4.18707 35.6016C4.45379 36.6376 4.99885 37.5902 5.74104 38.3166C6.88913 39.4478 8.18798 39.9479 9.9391 39.9479H10.9596L10.5653 40.5433C9.85792 41.6269 9.64918 42.3532 9.64918 43.7583C9.64918 45.1634 9.85792 45.8898 10.5653 46.9734L10.9596 47.5687H9.01135C7.65452 47.5687 6.87753 47.6283 6.39047 47.7474C3.42168 48.5452 1.57778 51.6649 2.33157 54.6299C2.85343 56.6899 4.39581 58.2855 6.39047 58.8214C6.9935 58.9762 9.63758 59 28.4593 59H49.8322L50.1106 58.7023C50.4817 58.3332 50.4933 57.7735 50.1337 57.4044C49.9366 57.202 49.6815 57.1186 49.1364 57.0591C47.7912 56.9162 46.6895 56.1065 46.0865 54.8324C45.7154 54.0465 45.727 52.4985 46.1096 51.6768C46.4691 50.9267 47.165 50.2003 47.9072 49.8312C48.487 49.5335 48.487 49.5335 52.9286 49.474L57.3818 49.4144L57.6021 49.1286C57.9036 48.7476 57.8804 48.2117 57.5557 47.8783C57.3586 47.6759 57.1034 47.5926 56.5584 47.533C55.2132 47.3901 54.1115 46.5804 53.5084 45.3063C53.1373 44.5204 53.1489 42.9724 53.5316 42.1508C54.1115 40.9243 55.2364 40.1265 56.57 39.9836C57.1034 39.9241 57.3586 39.8407 57.5557 39.6383C57.8804 39.3049 57.9036 38.7691 57.6021 38.388L57.3818 38.1022L53.8563 38.0427L50.3425 37.9832L49.6119 37.5783C48.8117 37.1258 48.3362 36.6257 47.9419 35.7803C47.5708 34.9944 47.5824 33.4464 47.9651 32.6248C48.545 31.3983 49.6699 30.6005 51.0035 30.4576C51.537 30.398 51.7921 30.3147 51.9892 30.1123C52.3487 29.7431 52.3371 29.1835 51.966 28.8143C51.6877 28.5166 51.6877 28.5166 49.1828 28.5166H46.6895V27.564V26.6114H47.3273C48.1507 26.6114 48.4406 26.3495 48.6494 25.385C48.7305 25.0158 48.8117 24.7062 48.8465 24.7062C48.8697 24.7062 49.148 24.861 49.4495 25.0634C50.4585 25.6945 50.5744 25.6469 52.3371 23.837C54.0999 22.027 54.1463 21.9079 53.5316 20.872C53.3345 20.5624 53.1837 20.2766 53.1837 20.2528C53.1837 20.2171 53.4852 20.1337 53.8563 20.0504C55.0276 19.7765 55.0392 19.7408 55.0392 17.0854C55.0392 14.43 55.0276 14.3943 53.8563 14.1204C53.4852 14.037 53.1837 13.9537 53.1837 13.918C53.1837 13.8942 53.3461 13.6084 53.5316 13.2988C54.1463 12.2628 54.0999 12.1437 52.3371 10.3338C50.5744 8.52385 50.4585 8.47622 49.4495 9.10732C49.148 9.29784 48.8697 9.46454 48.8465 9.46454C48.8117 9.46454 48.7305 9.15495 48.6494 8.7739C48.4406 7.8213 48.1507 7.55933 47.3273 7.55933H46.6895V5.93991C46.6895 5.01112 46.6315 4.10614 46.5503 3.82036C46.3648 3.16544 45.4022 2.17712 44.7644 1.98659C44.115 1.79607 15.7607 1.79607 15.1461 1.9985ZM18.8571 4.41574C18.8571 4.78487 18.9151 5.3088 18.9962 5.58268C19.1818 6.23759 20.1443 7.22592 20.7821 7.41644C21.4664 7.61887 38.5137 7.61887 39.1979 7.41644C39.8358 7.22592 40.7983 6.23759 40.9838 5.58268C41.065 5.3088 41.123 4.78487 41.123 4.41574V3.74891H42.6886C44.2078 3.74891 44.2773 3.76082 44.5441 4.0466C44.8224 4.32048 44.834 4.39192 44.834 5.95181V7.55933H44.1962C43.3728 7.55933 43.0829 7.8213 42.8741 8.7739C42.793 9.15495 42.7118 9.46454 42.677 9.46454C42.6538 9.46454 42.3755 9.29784 42.0739 9.10732C41.065 8.47622 40.9491 8.52385 39.1863 10.3338C37.4236 12.1437 37.3772 12.2628 37.9919 13.2988C38.189 13.6084 38.3398 13.8942 38.3398 13.918C38.3398 13.9537 38.0382 14.037 37.6787 14.1204C36.4959 14.3943 36.4843 14.43 36.4843 17.0854C36.4843 19.7408 36.4959 19.7765 37.6787 20.0504C38.0382 20.1337 38.3398 20.2171 38.3398 20.2528C38.3398 20.2766 38.189 20.5624 37.9919 20.872C37.3772 21.9079 37.4236 22.027 39.1863 23.837C40.9491 25.6469 41.065 25.6945 42.0739 25.0634C42.3755 24.861 42.6538 24.7062 42.677 24.7062C42.7118 24.7062 42.793 25.0158 42.8741 25.385C43.0829 26.3495 43.3728 26.6114 44.1962 26.6114H44.834V27.564V28.5166H29.99H15.1461V16.4305V4.33238L15.436 4.0466C15.7027 3.76082 15.7723 3.74891 17.2915 3.74891H18.8571V4.41574ZM39.2675 4.40383C39.2675 4.95158 39.2211 5.11828 38.9776 5.35643L38.6993 5.65412H29.99H21.2808L21.0025 5.35643C20.759 5.11828 20.7126 4.95158 20.7126 4.40383V3.74891H29.99H39.2675V4.40383ZM47.107 10.3814C47.2577 11.0602 47.4085 11.4055 47.652 11.6555C48.0579 12.0842 48.3594 12.0366 49.4263 11.3698L50.2033 10.8696L51.0035 11.7032L51.8153 12.5248L51.3282 13.3226C50.6788 14.4181 50.6324 14.7277 51.0499 15.1445C51.2934 15.3945 51.6297 15.5493 52.2908 15.7041L53.1837 15.9184V17.0854V18.2523L52.2908 18.4667C51.6297 18.6215 51.2934 18.7763 51.0499 19.0263C50.6324 19.4431 50.6788 19.7527 51.3282 20.8482L51.8153 21.646L51.0035 22.4676L50.2033 23.3011L49.4263 22.801C48.3594 22.1342 48.0579 22.0866 47.652 22.5152C47.4085 22.7653 47.2577 23.1106 47.107 23.7774L46.8982 24.7062H45.7617H44.6253L44.4165 23.7774C44.2657 23.1106 44.115 22.7653 43.8715 22.5152C43.4656 22.0866 43.164 22.1342 42.0971 22.801L41.3202 23.3011L40.52 22.4676L39.7082 21.646L40.1953 20.8482C40.8447 19.7527 40.8911 19.4431 40.4736 19.0263C40.23 18.7763 39.8937 18.6215 39.2443 18.4667L38.3398 18.2523V17.0854V15.9184L39.2443 15.7041C39.8937 15.5493 40.23 15.3945 40.4736 15.1445C40.8911 14.7277 40.8447 14.4181 40.1953 13.3226L39.7082 12.5248L40.52 11.7032L41.3202 10.8696L42.0971 11.3698C43.164 12.0366 43.4656 12.0842 43.8715 11.6555C44.115 11.4055 44.2657 11.0602 44.4165 10.3814L44.6253 9.46454H45.7617H46.8982L47.107 10.3814ZM46.7475 31.0172C46.0401 32.1008 45.8313 32.8272 45.8313 34.2323C45.8313 35.6374 46.0401 36.3637 46.7475 37.4473L47.1418 38.0427L27.8678 38.0189L8.59387 37.9832L7.86327 37.5783C7.06308 37.1258 6.58761 36.6257 6.19332 35.7803C5.82222 34.9944 5.83382 33.4464 6.21651 32.6248C6.70358 31.6007 7.66612 30.791 8.70983 30.529C8.90698 30.4814 17.6278 30.4457 28.0998 30.4338L47.1418 30.4219L46.7475 31.0172ZM52.314 40.5433C51.6065 41.6269 51.3978 42.3532 51.3978 43.7583C51.3978 45.1634 51.6065 45.8898 52.314 46.9734L52.7082 47.5687L33.4343 47.5449L14.1603 47.5092L13.4297 47.1043C12.6296 46.6519 12.1541 46.1517 11.7598 45.3063C11.3887 44.5204 11.4003 42.9724 11.783 42.1508C12.2701 41.1267 13.2326 40.317 14.2763 40.0551C14.4735 40.0074 23.1943 39.9717 33.6662 39.9598L52.7082 39.9479L52.314 40.5433ZM44.892 50.0693C44.1846 51.1529 43.9758 51.8793 43.9758 53.2844C43.9758 54.6895 44.1846 55.4158 44.892 56.4994L45.2863 57.0948L26.0123 57.071L6.73837 57.0353L6.00777 56.6304C5.20759 56.1779 4.73212 55.6778 4.33783 54.8324C3.96673 54.0465 3.97832 52.4985 4.36102 51.6768C4.84809 50.6528 5.81062 49.8431 6.85434 49.5811C7.05149 49.5335 15.7723 49.4978 26.2443 49.4859L45.2863 49.474L44.892 50.0693Z"/>
</mask>
<path d="M15.1461 1.9985C14.5778 2.18902 13.6037 3.21307 13.4297 3.82036C13.3254 4.18949 13.2906 7.26164 13.2906 16.4186V28.5166H11.1104C9.53321 28.5166 8.74462 28.5643 8.24596 28.6953C5.27717 29.4931 3.43327 32.6128 4.18707 35.6016C4.45379 36.6376 4.99885 37.5902 5.74104 38.3166C6.88913 39.4478 8.18798 39.9479 9.9391 39.9479H10.9596L10.5653 40.5433C9.85792 41.6269 9.64918 42.3532 9.64918 43.7583C9.64918 45.1634 9.85792 45.8898 10.5653 46.9734L10.9596 47.5687H9.01135C7.65452 47.5687 6.87753 47.6283 6.39047 47.7474C3.42168 48.5452 1.57778 51.6649 2.33157 54.6299C2.85343 56.6899 4.39581 58.2855 6.39047 58.8214C6.9935 58.9762 9.63758 59 28.4593 59H49.8322L50.1106 58.7023C50.4817 58.3332 50.4933 57.7735 50.1337 57.4044C49.9366 57.202 49.6815 57.1186 49.1364 57.0591C47.7912 56.9162 46.6895 56.1065 46.0865 54.8324C45.7154 54.0465 45.727 52.4985 46.1096 51.6768C46.4691 50.9267 47.165 50.2003 47.9072 49.8312C48.487 49.5335 48.487 49.5335 52.9286 49.474L57.3818 49.4144L57.6021 49.1286C57.9036 48.7476 57.8804 48.2117 57.5557 47.8783C57.3586 47.6759 57.1034 47.5926 56.5584 47.533C55.2132 47.3901 54.1115 46.5804 53.5084 45.3063C53.1373 44.5204 53.1489 42.9724 53.5316 42.1508C54.1115 40.9243 55.2364 40.1265 56.57 39.9836C57.1034 39.9241 57.3586 39.8407 57.5557 39.6383C57.8804 39.3049 57.9036 38.7691 57.6021 38.388L57.3818 38.1022L53.8563 38.0427L50.3425 37.9832L49.6119 37.5783C48.8117 37.1258 48.3362 36.6257 47.9419 35.7803C47.5708 34.9944 47.5824 33.4464 47.9651 32.6248C48.545 31.3983 49.6699 30.6005 51.0035 30.4576C51.537 30.398 51.7921 30.3147 51.9892 30.1123C52.3487 29.7431 52.3371 29.1835 51.966 28.8143C51.6877 28.5166 51.6877 28.5166 49.1828 28.5166H46.6895V27.564V26.6114H47.3273C48.1507 26.6114 48.4406 26.3495 48.6494 25.385C48.7305 25.0158 48.8117 24.7062 48.8465 24.7062C48.8697 24.7062 49.148 24.861 49.4495 25.0634C50.4585 25.6945 50.5744 25.6469 52.3371 23.837C54.0999 22.027 54.1463 21.9079 53.5316 20.872C53.3345 20.5624 53.1837 20.2766 53.1837 20.2528C53.1837 20.2171 53.4852 20.1337 53.8563 20.0504C55.0276 19.7765 55.0392 19.7408 55.0392 17.0854C55.0392 14.43 55.0276 14.3943 53.8563 14.1204C53.4852 14.037 53.1837 13.9537 53.1837 13.918C53.1837 13.8942 53.3461 13.6084 53.5316 13.2988C54.1463 12.2628 54.0999 12.1437 52.3371 10.3338C50.5744 8.52385 50.4585 8.47622 49.4495 9.10732C49.148 9.29784 48.8697 9.46454 48.8465 9.46454C48.8117 9.46454 48.7305 9.15495 48.6494 8.7739C48.4406 7.8213 48.1507 7.55933 47.3273 7.55933H46.6895V5.93991C46.6895 5.01112 46.6315 4.10614 46.5503 3.82036C46.3648 3.16544 45.4022 2.17712 44.7644 1.98659C44.115 1.79607 15.7607 1.79607 15.1461 1.9985ZM18.8571 4.41574C18.8571 4.78487 18.9151 5.3088 18.9962 5.58268C19.1818 6.23759 20.1443 7.22592 20.7821 7.41644C21.4664 7.61887 38.5137 7.61887 39.1979 7.41644C39.8358 7.22592 40.7983 6.23759 40.9838 5.58268C41.065 5.3088 41.123 4.78487 41.123 4.41574V3.74891H42.6886C44.2078 3.74891 44.2773 3.76082 44.5441 4.0466C44.8224 4.32048 44.834 4.39192 44.834 5.95181V7.55933H44.1962C43.3728 7.55933 43.0829 7.8213 42.8741 8.7739C42.793 9.15495 42.7118 9.46454 42.677 9.46454C42.6538 9.46454 42.3755 9.29784 42.0739 9.10732C41.065 8.47622 40.9491 8.52385 39.1863 10.3338C37.4236 12.1437 37.3772 12.2628 37.9919 13.2988C38.189 13.6084 38.3398 13.8942 38.3398 13.918C38.3398 13.9537 38.0382 14.037 37.6787 14.1204C36.4959 14.3943 36.4843 14.43 36.4843 17.0854C36.4843 19.7408 36.4959 19.7765 37.6787 20.0504C38.0382 20.1337 38.3398 20.2171 38.3398 20.2528C38.3398 20.2766 38.189 20.5624 37.9919 20.872C37.3772 21.9079 37.4236 22.027 39.1863 23.837C40.9491 25.6469 41.065 25.6945 42.0739 25.0634C42.3755 24.861 42.6538 24.7062 42.677 24.7062C42.7118 24.7062 42.793 25.0158 42.8741 25.385C43.0829 26.3495 43.3728 26.6114 44.1962 26.6114H44.834V27.564V28.5166H29.99H15.1461V16.4305V4.33238L15.436 4.0466C15.7027 3.76082 15.7723 3.74891 17.2915 3.74891H18.8571V4.41574ZM39.2675 4.40383C39.2675 4.95158 39.2211 5.11828 38.9776 5.35643L38.6993 5.65412H29.99H21.2808L21.0025 5.35643C20.759 5.11828 20.7126 4.95158 20.7126 4.40383V3.74891H29.99H39.2675V4.40383ZM47.107 10.3814C47.2577 11.0602 47.4085 11.4055 47.652 11.6555C48.0579 12.0842 48.3594 12.0366 49.4263 11.3698L50.2033 10.8696L51.0035 11.7032L51.8153 12.5248L51.3282 13.3226C50.6788 14.4181 50.6324 14.7277 51.0499 15.1445C51.2934 15.3945 51.6297 15.5493 52.2908 15.7041L53.1837 15.9184V17.0854V18.2523L52.2908 18.4667C51.6297 18.6215 51.2934 18.7763 51.0499 19.0263C50.6324 19.4431 50.6788 19.7527 51.3282 20.8482L51.8153 21.646L51.0035 22.4676L50.2033 23.3011L49.4263 22.801C48.3594 22.1342 48.0579 22.0866 47.652 22.5152C47.4085 22.7653 47.2577 23.1106 47.107 23.7774L46.8982 24.7062H45.7617H44.6253L44.4165 23.7774C44.2657 23.1106 44.115 22.7653 43.8715 22.5152C43.4656 22.0866 43.164 22.1342 42.0971 22.801L41.3202 23.3011L40.52 22.4676L39.7082 21.646L40.1953 20.8482C40.8447 19.7527 40.8911 19.4431 40.4736 19.0263C40.23 18.7763 39.8937 18.6215 39.2443 18.4667L38.3398 18.2523V17.0854V15.9184L39.2443 15.7041C39.8937 15.5493 40.23 15.3945 40.4736 15.1445C40.8911 14.7277 40.8447 14.4181 40.1953 13.3226L39.7082 12.5248L40.52 11.7032L41.3202 10.8696L42.0971 11.3698C43.164 12.0366 43.4656 12.0842 43.8715 11.6555C44.115 11.4055 44.2657 11.0602 44.4165 10.3814L44.6253 9.46454H45.7617H46.8982L47.107 10.3814ZM46.7475 31.0172C46.0401 32.1008 45.8313 32.8272 45.8313 34.2323C45.8313 35.6374 46.0401 36.3637 46.7475 37.4473L47.1418 38.0427L27.8678 38.0189L8.59387 37.9832L7.86327 37.5783C7.06308 37.1258 6.58761 36.6257 6.19332 35.7803C5.82222 34.9944 5.83382 33.4464 6.21651 32.6248C6.70358 31.6007 7.66612 30.791 8.70983 30.529C8.90698 30.4814 17.6278 30.4457 28.0998 30.4338L47.1418 30.4219L46.7475 31.0172ZM52.314 40.5433C51.6065 41.6269 51.3978 42.3532 51.3978 43.7583C51.3978 45.1634 51.6065 45.8898 52.314 46.9734L52.7082 47.5687L33.4343 47.5449L14.1603 47.5092L13.4297 47.1043C12.6296 46.6519 12.1541 46.1517 11.7598 45.3063C11.3887 44.5204 11.4003 42.9724 11.783 42.1508C12.2701 41.1267 13.2326 40.317 14.2763 40.0551C14.4735 40.0074 23.1943 39.9717 33.6662 39.9598L52.7082 39.9479L52.314 40.5433ZM44.892 50.0693C44.1846 51.1529 43.9758 51.8793 43.9758 53.2844C43.9758 54.6895 44.1846 55.4158 44.892 56.4994L45.2863 57.0948L26.0123 57.071L6.73837 57.0353L6.00777 56.6304C5.20759 56.1779 4.73212 55.6778 4.33783 54.8324C3.96673 54.0465 3.97832 52.4985 4.36102 51.6768C4.84809 50.6528 5.81062 49.8431 6.85434 49.5811C7.05149 49.5335 15.7723 49.4978 26.2443 49.4859L45.2863 49.474L44.892 50.0693Z" fill="black"/>
<path d="M15.1461 1.9985C14.5778 2.18902 13.6037 3.21307 13.4297 3.82036C13.3254 4.18949 13.2906 7.26164 13.2906 16.4186V28.5166H11.1104C9.53321 28.5166 8.74462 28.5643 8.24596 28.6953C5.27717 29.4931 3.43327 32.6128 4.18707 35.6016C4.45379 36.6376 4.99885 37.5902 5.74104 38.3166C6.88913 39.4478 8.18798 39.9479 9.9391 39.9479H10.9596L10.5653 40.5433C9.85792 41.6269 9.64918 42.3532 9.64918 43.7583C9.64918 45.1634 9.85792 45.8898 10.5653 46.9734L10.9596 47.5687H9.01135C7.65452 47.5687 6.87753 47.6283 6.39047 47.7474C3.42168 48.5452 1.57778 51.6649 2.33157 54.6299C2.85343 56.6899 4.39581 58.2855 6.39047 58.8214C6.9935 58.9762 9.63758 59 28.4593 59H49.8322L50.1106 58.7023C50.4817 58.3332 50.4933 57.7735 50.1337 57.4044C49.9366 57.202 49.6815 57.1186 49.1364 57.0591C47.7912 56.9162 46.6895 56.1065 46.0865 54.8324C45.7154 54.0465 45.727 52.4985 46.1096 51.6768C46.4691 50.9267 47.165 50.2003 47.9072 49.8312C48.487 49.5335 48.487 49.5335 52.9286 49.474L57.3818 49.4144L57.6021 49.1286C57.9036 48.7476 57.8804 48.2117 57.5557 47.8783C57.3586 47.6759 57.1034 47.5926 56.5584 47.533C55.2132 47.3901 54.1115 46.5804 53.5084 45.3063C53.1373 44.5204 53.1489 42.9724 53.5316 42.1508C54.1115 40.9243 55.2364 40.1265 56.57 39.9836C57.1034 39.9241 57.3586 39.8407 57.5557 39.6383C57.8804 39.3049 57.9036 38.7691 57.6021 38.388L57.3818 38.1022L53.8563 38.0427L50.3425 37.9832L49.6119 37.5783C48.8117 37.1258 48.3362 36.6257 47.9419 35.7803C47.5708 34.9944 47.5824 33.4464 47.9651 32.6248C48.545 31.3983 49.6699 30.6005 51.0035 30.4576C51.537 30.398 51.7921 30.3147 51.9892 30.1123C52.3487 29.7431 52.3371 29.1835 51.966 28.8143C51.6877 28.5166 51.6877 28.5166 49.1828 28.5166H46.6895V27.564V26.6114H47.3273C48.1507 26.6114 48.4406 26.3495 48.6494 25.385C48.7305 25.0158 48.8117 24.7062 48.8465 24.7062C48.8697 24.7062 49.148 24.861 49.4495 25.0634C50.4585 25.6945 50.5744 25.6469 52.3371 23.837C54.0999 22.027 54.1463 21.9079 53.5316 20.872C53.3345 20.5624 53.1837 20.2766 53.1837 20.2528C53.1837 20.2171 53.4852 20.1337 53.8563 20.0504C55.0276 19.7765 55.0392 19.7408 55.0392 17.0854C55.0392 14.43 55.0276 14.3943 53.8563 14.1204C53.4852 14.037 53.1837 13.9537 53.1837 13.918C53.1837 13.8942 53.3461 13.6084 53.5316 13.2988C54.1463 12.2628 54.0999 12.1437 52.3371 10.3338C50.5744 8.52385 50.4585 8.47622 49.4495 9.10732C49.148 9.29784 48.8697 9.46454 48.8465 9.46454C48.8117 9.46454 48.7305 9.15495 48.6494 8.7739C48.4406 7.8213 48.1507 7.55933 47.3273 7.55933H46.6895V5.93991C46.6895 5.01112 46.6315 4.10614 46.5503 3.82036C46.3648 3.16544 45.4022 2.17712 44.7644 1.98659C44.115 1.79607 15.7607 1.79607 15.1461 1.9985ZM18.8571 4.41574C18.8571 4.78487 18.9151 5.3088 18.9962 5.58268C19.1818 6.23759 20.1443 7.22592 20.7821 7.41644C21.4664 7.61887 38.5137 7.61887 39.1979 7.41644C39.8358 7.22592 40.7983 6.23759 40.9838 5.58268C41.065 5.3088 41.123 4.78487 41.123 4.41574V3.74891H42.6886C44.2078 3.74891 44.2773 3.76082 44.5441 4.0466C44.8224 4.32048 44.834 4.39192 44.834 5.95181V7.55933H44.1962C43.3728 7.55933 43.0829 7.8213 42.8741 8.7739C42.793 9.15495 42.7118 9.46454 42.677 9.46454C42.6538 9.46454 42.3755 9.29784 42.0739 9.10732C41.065 8.47622 40.9491 8.52385 39.1863 10.3338C37.4236 12.1437 37.3772 12.2628 37.9919 13.2988C38.189 13.6084 38.3398 13.8942 38.3398 13.918C38.3398 13.9537 38.0382 14.037 37.6787 14.1204C36.4959 14.3943 36.4843 14.43 36.4843 17.0854C36.4843 19.7408 36.4959 19.7765 37.6787 20.0504C38.0382 20.1337 38.3398 20.2171 38.3398 20.2528C38.3398 20.2766 38.189 20.5624 37.9919 20.872C37.3772 21.9079 37.4236 22.027 39.1863 23.837C40.9491 25.6469 41.065 25.6945 42.0739 25.0634C42.3755 24.861 42.6538 24.7062 42.677 24.7062C42.7118 24.7062 42.793 25.0158 42.8741 25.385C43.0829 26.3495 43.3728 26.6114 44.1962 26.6114H44.834V27.564V28.5166H29.99H15.1461V16.4305V4.33238L15.436 4.0466C15.7027 3.76082 15.7723 3.74891 17.2915 3.74891H18.8571V4.41574ZM39.2675 4.40383C39.2675 4.95158 39.2211 5.11828 38.9776 5.35643L38.6993 5.65412H29.99H21.2808L21.0025 5.35643C20.759 5.11828 20.7126 4.95158 20.7126 4.40383V3.74891H29.99H39.2675V4.40383ZM47.107 10.3814C47.2577 11.0602 47.4085 11.4055 47.652 11.6555C48.0579 12.0842 48.3594 12.0366 49.4263 11.3698L50.2033 10.8696L51.0035 11.7032L51.8153 12.5248L51.3282 13.3226C50.6788 14.4181 50.6324 14.7277 51.0499 15.1445C51.2934 15.3945 51.6297 15.5493 52.2908 15.7041L53.1837 15.9184V17.0854V18.2523L52.2908 18.4667C51.6297 18.6215 51.2934 18.7763 51.0499 19.0263C50.6324 19.4431 50.6788 19.7527 51.3282 20.8482L51.8153 21.646L51.0035 22.4676L50.2033 23.3011L49.4263 22.801C48.3594 22.1342 48.0579 22.0866 47.652 22.5152C47.4085 22.7653 47.2577 23.1106 47.107 23.7774L46.8982 24.7062H45.7617H44.6253L44.4165 23.7774C44.2657 23.1106 44.115 22.7653 43.8715 22.5152C43.4656 22.0866 43.164 22.1342 42.0971 22.801L41.3202 23.3011L40.52 22.4676L39.7082 21.646L40.1953 20.8482C40.8447 19.7527 40.8911 19.4431 40.4736 19.0263C40.23 18.7763 39.8937 18.6215 39.2443 18.4667L38.3398 18.2523V17.0854V15.9184L39.2443 15.7041C39.8937 15.5493 40.23 15.3945 40.4736 15.1445C40.8911 14.7277 40.8447 14.4181 40.1953 13.3226L39.7082 12.5248L40.52 11.7032L41.3202 10.8696L42.0971 11.3698C43.164 12.0366 43.4656 12.0842 43.8715 11.6555C44.115 11.4055 44.2657 11.0602 44.4165 10.3814L44.6253 9.46454H45.7617H46.8982L47.107 10.3814ZM46.7475 31.0172C46.0401 32.1008 45.8313 32.8272 45.8313 34.2323C45.8313 35.6374 46.0401 36.3637 46.7475 37.4473L47.1418 38.0427L27.8678 38.0189L8.59387 37.9832L7.86327 37.5783C7.06308 37.1258 6.58761 36.6257 6.19332 35.7803C5.82222 34.9944 5.83382 33.4464 6.21651 32.6248C6.70358 31.6007 7.66612 30.791 8.70983 30.529C8.90698 30.4814 17.6278 30.4457 28.0998 30.4338L47.1418 30.4219L46.7475 31.0172ZM52.314 40.5433C51.6065 41.6269 51.3978 42.3532 51.3978 43.7583C51.3978 45.1634 51.6065 45.8898 52.314 46.9734L52.7082 47.5687L33.4343 47.5449L14.1603 47.5092L13.4297 47.1043C12.6296 46.6519 12.1541 46.1517 11.7598 45.3063C11.3887 44.5204 11.4003 42.9724 11.783 42.1508C12.2701 41.1267 13.2326 40.317 14.2763 40.0551C14.4735 40.0074 23.1943 39.9717 33.6662 39.9598L52.7082 39.9479L52.314 40.5433ZM44.892 50.0693C44.1846 51.1529 43.9758 51.8793 43.9758 53.2844C43.9758 54.6895 44.1846 55.4158 44.892 56.4994L45.2863 57.0948L26.0123 57.071L6.73837 57.0353L6.00777 56.6304C5.20759 56.1779 4.73212 55.6778 4.33783 54.8324C3.96673 54.0465 3.97832 52.4985 4.36102 51.6768C4.84809 50.6528 5.81062 49.8431 6.85434 49.5811C7.05149 49.5335 15.7723 49.4978 26.2443 49.4859L45.2863 49.474L44.892 50.0693Z" stroke="black" mask="url(#path-1-outside-1_435_7)"/>
<path d="M20.7125 13.2749V14.2275H22.568H24.4235V13.2749V12.3223H22.568H20.7125V13.2749Z" fill="black"/>
<path d="M26.2791 13.2749V14.2275H29.99H33.701V13.2749V12.3223H29.99H26.2791V13.2749Z" fill="black"/>
<path d="M20.7125 17.0854V18.038H21.6403H22.568V17.0854V16.1328H21.6403H20.7125V17.0854Z" fill="black"/>
<path d="M24.4236 17.0854V18.038H29.0623H33.7011V17.0854V16.1328H29.0623H24.4236V17.0854Z" fill="black"/>
<path d="M20.7125 20.8958V21.8484H24.4235H28.1345V20.8958V19.9432H24.4235H20.7125V20.8958Z" fill="black"/>
<path d="M29.9901 20.8958V21.8484H31.8456H33.7011V20.8958V19.9432H31.8456H29.9901V20.8958Z" fill="black"/>
<path d="M44.892 13.3821C43.8251 13.6679 42.8857 14.4538 42.3987 15.4778C41.9928 16.3471 41.9928 17.8475 42.3987 18.6929C42.7582 19.455 43.454 20.1694 44.1962 20.5386C45.0195 20.9553 46.4807 20.9553 47.3273 20.5386C48.0695 20.1694 48.7653 19.455 49.1248 18.6929C49.5307 17.8236 49.5307 16.3233 49.1248 15.4778C48.7537 14.7158 48.0579 14.0013 47.3273 13.6441C46.7011 13.3464 45.5182 13.2154 44.892 13.3821ZM46.4923 15.3469C47.6984 15.8589 47.9767 17.4307 47.0374 18.3952C46.272 19.1811 45.2283 19.193 44.4745 18.4071C43.0365 16.9425 44.6252 14.5372 46.4923 15.3469Z" fill="black"/>
<path d="M7.72412 34.2323V35.1849H23.9597H40.1953V34.2323V33.2797H23.9597H7.72412V34.2323Z" fill="black"/>
<path d="M42.0508 34.2323V35.1849H42.9785H43.9063V34.2323V33.2797H42.9785H42.0508V34.2323Z" fill="black"/>
<path d="M13.2906 43.7583V44.7109H14.2184H15.1461V43.7583V42.8057H14.2184H13.2906V43.7583Z" fill="black"/>
<path d="M17.0016 43.7583V44.7109H33.2372H49.4727V43.7583V42.8057H33.2372H17.0016V43.7583Z" fill="black"/>
<path d="M5.86865 53.2844V54.237H22.1042H38.3398V53.2844V52.3318H22.1042H5.86865V53.2844Z" fill="black"/>
<path d="M40.1953 53.2844V54.237H41.1231H42.0508V53.2844V52.3318H41.1231H40.1953V53.2844Z" fill="black"/>
</svg>
