<svg width="65" height="59" viewBox="0 0 65 59" fill="none" xmlns="http://www.w3.org/2000/svg">
<mask id="path-1-outside-1_435_23" maskUnits="userSpaceOnUse" x="0.015625" y="0.078125" width="65" height="59" fill="black">
<rect fill="white" x="0.015625" y="0.078125" width="65" height="59"/>
<path d="M11.4258 1.10625C9.17871 1.54414 7.00781 3.07676 5.97949 4.95508C5.10352 6.56836 4.8877 8.05488 5.28125 9.76035C5.45898 10.5439 5.45898 10.6707 5.28125 11.074C4.83691 12.065 5.10352 13.0561 6.03027 13.8857C6.74121 14.5426 7.3252 14.75 8.4043 14.75H9.10254L9.17871 15.2686C9.33105 16.248 10.4229 17.7 11.1846 17.9189C11.3242 17.965 11.4258 18.0918 11.4258 18.2531C11.4258 18.4836 11.3115 18.5412 10.6006 18.7256C7.21094 19.5553 4.45605 22.0443 3.41504 25.2363C3.16113 26.0314 3.12305 26.4002 3.08496 29.6498L3.02148 33.1875H2.01855H1.01562V34.1094V35.0312H3.55469H6.09375V36.7598V38.4768L7.42676 38.8455L8.75977 39.2143L9.02637 40.0324C9.4834 41.5074 10.0547 42.7865 10.8799 44.2615L11.6924 45.725L11.0576 46.8658L10.4355 48.0182L13.8125 51.0834L17.2021 54.1486L18.4463 53.5725L19.6904 52.9963L21.4297 53.7799C23.1816 54.575 24.3115 54.9898 25.9746 55.4162L26.876 55.6582L27.2822 56.8682L27.6885 58.0781H32.5H37.3115L37.7178 56.8682L38.124 55.6582L38.835 55.4854C40.3076 55.1166 42.1357 54.4598 43.6846 53.7338L45.2969 52.9963L46.541 53.5725L47.7979 54.1486L51.1875 51.0834L54.5645 48.0182L53.9424 46.8658L53.3076 45.725L54.1201 44.2615C54.9453 42.7865 55.5166 41.5074 55.9736 40.0439L56.2402 39.2258L57.5732 38.857L58.9062 38.4883V36.7598V35.0312H61.4453H63.9844V34.1094V33.1875H62.9814H61.9785L61.915 29.6498C61.877 26.4002 61.8389 26.0314 61.585 25.2363C60.5439 22.0789 57.751 19.5437 54.3994 18.7256C53.6885 18.5412 53.5742 18.4836 53.5742 18.2531C53.5742 18.0918 53.6758 17.965 53.8154 17.9189C54.2217 17.8037 55.0723 16.9855 55.4023 16.3979C55.5674 16.0867 55.7451 15.5912 55.7959 15.2916L55.8848 14.75H56.583C57.6748 14.75 58.2588 14.5426 58.9697 13.8857C59.8965 13.0561 60.125 12.2033 59.7314 11.1201C59.5537 10.6477 59.5537 10.5209 59.7314 9.7373C60.1123 8.05488 59.8838 6.56836 59.0205 4.95508C57.9795 3.05371 55.8213 1.53262 53.5107 1.09473C52.2793 0.864257 47.252 0.864257 46.0205 1.09473C43.71 1.53262 41.5518 3.05371 40.5107 4.95508C40.0156 5.88848 39.6221 7.16758 39.6094 7.87051V8.20469L38.9873 7.69766C36.8672 5.98066 33.5918 5.18555 30.6973 5.69258C28.9072 6.00371 27.2695 6.69512 26.0889 7.62851C25.7842 7.87051 25.5176 8.06641 25.4795 8.06641C25.4414 8.06641 25.3779 7.7668 25.3271 7.40957C24.9971 5.00117 23.2832 2.78867 20.9346 1.74004C19.3477 1.03711 18.5859 0.921874 15.1709 0.933398C13.1777 0.933398 11.9844 0.991015 11.4258 1.10625ZM18.7256 2.93848C21.3789 3.57226 23.3594 5.83086 23.3594 8.23926C23.3594 9.34551 23.5117 9.27637 21.0996 9.2418C19.9316 9.21875 18.5986 9.13809 18.1416 9.0459C16.9863 8.83848 15.8184 8.28535 14.8027 7.49023C13.5205 6.48769 12.5176 6.2457 11.2354 6.64902C10.334 6.92559 9.57227 7.65156 9.31836 8.51582L9.10254 9.1957L8.20117 9.2418C7.70605 9.27637 7.27441 9.27637 7.24902 9.25332C7.21094 9.23027 7.16016 8.90762 7.13477 8.55039C6.93164 6.06133 8.9375 3.61836 11.7178 2.93848C12.6953 2.70801 17.71 2.70801 18.7256 2.93848ZM53.2314 2.93848C55.5166 3.48008 57.2939 5.1625 57.7637 7.22519C57.9033 7.81289 57.8906 9.16113 57.751 9.25332C57.7256 9.26484 56.5322 9.25332 55.0977 9.20723C52.3809 9.12656 51.5176 8.98828 50.248 8.40059C49.7783 8.18164 49.7529 8.18164 49.2959 8.40059C48.001 8.98828 47.1504 9.13809 44.4336 9.20723C42.999 9.2418 41.8057 9.26484 41.7803 9.2418C41.7422 9.23027 41.6914 8.90762 41.666 8.55039C41.4629 6.06133 43.4688 3.61836 46.249 2.93848C47.2139 2.70801 52.2412 2.70801 53.2314 2.93848ZM34.2139 7.54785C36.9561 8.06641 39.4062 10.1176 40.2822 12.6182C40.5488 13.3902 40.5615 13.5977 40.5615 17.8729V22.3094L40.0918 23.1736C39.8379 23.6346 39.4316 24.1877 39.2031 24.3836L38.7842 24.7523L37.5527 24.3836C36.4863 24.0725 36.3086 23.9918 36.3086 23.7729C36.3086 23.623 36.4102 23.4963 36.5498 23.4502C36.9561 23.335 37.8066 22.5168 38.1748 21.8715L38.5303 21.2607L38.5684 18.0227L38.6064 14.7846L37.6162 14.727C36.1309 14.6463 35.623 14.3928 33.9346 12.8832L32.5 11.5926L31.0654 12.8832C29.377 14.3928 28.8691 14.6463 27.3838 14.727L26.3936 14.7846L26.4316 18.0227L26.4697 21.2607L26.8252 21.8715C27.1934 22.5168 28.0439 23.335 28.4502 23.4502C28.5898 23.4963 28.6914 23.623 28.6914 23.7729C28.6914 23.9918 28.5137 24.0725 27.4473 24.3836L26.2158 24.7523L25.7969 24.3836C25.5684 24.1877 25.1621 23.6346 24.9082 23.1736L24.4385 22.3094L24.4004 18.207C24.3496 13.4709 24.4131 12.9869 25.2891 11.4082C26.9141 8.4582 30.6084 6.86797 34.2139 7.54785ZM13.5967 8.98828C15.1201 10.1176 16.834 10.809 18.5732 11.0049L19.3096 11.0855L19.2715 13.252C19.2334 15.6258 19.1953 15.7295 18.3574 16.2941C18.0273 16.5246 17.8369 16.5361 15.2344 16.5361C12.1748 16.5361 12.1494 16.5246 11.502 15.741C11.248 15.4414 11.2354 15.2455 11.1973 12.2033L11.1592 8.97676L11.54 8.64258C12.124 8.1125 12.4922 8.17012 13.5967 8.98828ZM51.0986 10.6361C51.6572 10.7975 52.5078 10.9588 52.9775 11.0049L53.8408 11.0855L53.8027 13.2635C53.7646 15.6258 53.7266 15.7295 52.8887 16.2941C52.5586 16.5246 52.3682 16.5361 49.7656 16.5361C47.1631 16.5361 46.9727 16.5246 46.6426 16.2941C45.8047 15.7295 45.7666 15.6258 45.7285 13.2635L45.6904 11.1086L46.7441 10.9818C47.3281 10.9012 48.2041 10.7168 48.6865 10.567C49.6768 10.2443 49.6895 10.2443 51.0986 10.6361ZM9.14062 11.9844V12.9062H8.44238C7.5918 12.9062 7.10938 12.5721 7.10938 11.9844C7.10938 11.3967 7.5918 11.0625 8.44238 11.0625H9.14062V11.9844ZM22.8389 11.1777C23.0674 11.2814 23.0674 11.316 22.8008 12.0996L22.5342 12.9062H21.9375H21.3281V11.9844V11.0625H21.9756C22.3311 11.0625 22.7119 11.1086 22.8389 11.1777ZM43.6719 11.9844V12.9062H43.0752H42.4658L42.1992 12.0996C41.8691 11.1432 41.9326 11.074 43.0117 11.0625H43.6719V11.9844ZM57.5732 11.3506C57.7764 11.5234 57.8906 11.7654 57.8906 11.9844C57.8906 12.5721 57.4082 12.9062 56.5576 12.9062H55.8594V11.9844V11.0625H56.5576C57.1416 11.0625 57.3193 11.1086 57.5732 11.3506ZM33.2871 14.9229C34.1885 15.6834 35.1152 16.1904 35.9658 16.3863L36.5752 16.5246L36.5371 18.7371C36.499 21.1686 36.4736 21.2607 35.623 21.8254C35.293 22.0559 35.1025 22.0674 32.5 22.0674C29.8975 22.0674 29.707 22.0559 29.377 21.8254C28.5264 21.2607 28.501 21.1686 28.4629 18.7486L28.4248 16.5361L29.1738 16.3402C30.0244 16.1098 31.1924 15.4414 31.9287 14.7615C32.1953 14.4965 32.4492 14.2891 32.4746 14.2891C32.5 14.2891 32.8682 14.5771 33.2871 14.9229ZM22.3438 17.2045V19.659L21.4932 19.2902C21.0234 19.0828 20.2871 18.8178 19.8428 18.7141C19.1572 18.5412 19.043 18.4836 19.043 18.2531C19.043 18.0918 19.1445 17.965 19.2842 17.9189C19.6904 17.8037 20.541 16.9855 20.8711 16.3979C21.0361 16.0867 21.2139 15.5912 21.2646 15.2916C21.3535 14.75 21.3535 14.75 21.8486 14.75H22.3438V17.2045ZM43.71 15.2686C43.8623 16.248 44.9541 17.7 45.7158 17.9189C45.8555 17.965 45.957 18.0918 45.957 18.2531C45.957 18.4836 45.8428 18.5412 45.1572 18.7141C44.7129 18.8178 43.9766 19.0828 43.5068 19.2902L42.6562 19.659V17.2045V14.75H43.1514C43.6338 14.75 43.6338 14.7615 43.71 15.2686ZM17.1514 19.0598C17.3545 19.8779 17.2529 20.9035 16.9355 21.2838C16.4404 21.883 16.0342 22.0674 15.2344 22.0674C14.4346 22.0674 14.0283 21.883 13.5332 21.2838C13.2158 20.9035 13.1143 19.8779 13.3174 19.0598L13.4697 18.4375H15.2344H16.999L17.1514 19.0598ZM51.6191 18.8408C51.6826 19.198 51.5938 19.4055 50.7686 20.6846C50.248 21.4682 49.8037 22.125 49.7656 22.125C49.7275 22.125 49.2832 21.4682 48.7627 20.6846C47.9375 19.4055 47.8486 19.198 47.9121 18.8408L48.001 18.4375H49.7656H51.5303L51.6191 18.8408ZM47.3789 22.1365L48.4834 23.7959L47.5059 24.6947C46.9727 25.1787 46.5156 25.5475 46.5029 25.5014C46.4521 25.3631 45.957 20.8459 45.957 20.5924C45.957 20.143 46.2998 20.5232 47.3789 22.1365ZM53.5742 20.6039C53.5742 20.8459 53.0664 25.3746 53.0283 25.5014C53.0156 25.5475 52.5586 25.1787 52.0254 24.6947L51.0479 23.7959L51.9365 22.4707C52.4189 21.7447 52.9268 20.9727 53.0664 20.7652C53.333 20.3619 53.5742 20.2812 53.5742 20.6039ZM11.2861 21.0418C11.6162 22.2172 12.3271 23.0354 13.4951 23.5885C14.0664 23.8535 14.3076 23.8996 15.2344 23.8996C16.1611 23.8996 16.4023 23.8535 16.9736 23.5885C18.1416 23.0354 18.8525 22.2172 19.1826 21.0418C19.3477 20.4311 19.3477 20.4311 20.6299 20.9727C21.7471 21.4336 22.4707 21.9521 22.4707 22.2748C22.4707 22.9432 23.2197 24.4643 23.918 25.2248L24.375 25.7203L23.2578 26.792C21.5566 28.3937 20.5918 30.2605 20.3633 32.3809L20.2744 33.1875H12.6699H5.05273L5.10352 29.7535C5.1543 26.4117 5.16699 26.308 5.49707 25.4092C6.06836 23.842 7.16016 22.5168 8.59473 21.618C9.31836 21.1686 10.7656 20.5232 11.0576 20.5117C11.1084 20.5117 11.21 20.7537 11.2861 21.0418ZM44.459 25.4207C44.7129 27.6908 44.9287 29.5807 44.9287 29.6152C44.9414 29.6498 46.0332 28.6818 47.3535 27.4834L49.7656 25.2939L52.165 27.4719C54.3486 29.4424 54.5771 29.6268 54.6406 29.3732C54.6787 29.2234 54.8945 27.3566 55.1104 25.2363C55.3389 23.116 55.5674 21.3299 55.6182 21.2723C55.7578 21.1225 56.9766 21.8945 57.6367 22.5398C58.4492 23.335 59.1348 24.3951 59.5029 25.3977C59.8457 26.308 59.8457 26.4002 59.8965 29.7535L59.9473 33.1875H52.3301H44.7256L44.6367 32.3809C44.4082 30.2605 43.4434 28.3937 41.7295 26.7689L40.5869 25.6857L40.9678 25.317C41.6787 24.6371 42.5293 22.9777 42.5293 22.2863C42.5293 22.0904 42.707 21.8945 43.1387 21.6064C43.4688 21.3875 43.7861 21.2262 43.8623 21.2492C43.9258 21.2607 44.1924 23.1391 44.459 25.4207ZM34.417 24.591C34.6201 25.4092 34.5186 26.4348 34.2012 26.815C33.7061 27.4143 33.2998 27.5986 32.5 27.5986C31.7002 27.5986 31.2939 27.4143 30.7988 26.815C30.4814 26.4348 30.3799 25.4092 30.583 24.591L30.7354 23.9687H32.5H34.2646L34.417 24.591ZM28.5518 26.573C28.8818 27.7484 29.5928 28.5666 30.7607 29.1197C31.332 29.3848 31.5732 29.4309 32.5 29.4309C33.4268 29.4309 33.668 29.3848 34.2393 29.1197C35.4072 28.5666 36.1182 27.7484 36.4482 26.573C36.6133 25.9623 36.6006 25.9623 37.8193 26.4578C40.4346 27.518 42.2754 29.8342 42.6055 32.4846L42.6943 33.1875H32.5H22.3057L22.3945 32.4846C22.6738 30.3297 23.9561 28.3361 25.8477 27.1607C26.584 26.7113 28.0312 26.0545 28.3232 26.043C28.374 26.043 28.4756 26.285 28.5518 26.573ZM12.3398 35.9992C12.6318 38.8455 13.8125 41.8186 15.7041 44.4229C16.2881 45.218 17.0625 46.0361 18.2051 47.0848C20.7314 49.3664 23.0166 50.657 26.2666 51.625C28.5391 52.2934 29.9102 52.4893 32.5 52.4893C35.0898 52.4893 36.4609 52.2934 38.7334 51.625C41.9834 50.657 44.2686 49.3664 46.7949 47.0848C47.9375 46.0361 48.7119 45.218 49.2959 44.4229C51.1875 41.8186 52.3682 38.8455 52.6602 35.9992L52.749 35.0889L54.8184 35.0543L56.8877 35.0312L56.8496 36.0799L56.8115 37.14L55.6562 37.4627L54.4883 37.7969L54.209 38.857C53.6631 40.8967 52.5586 43.282 51.3652 44.976L50.9209 45.5982L51.5049 46.6123L52.0762 47.6264L49.7275 49.7582L47.3789 51.89L46.2871 51.36L45.1826 50.8299L44.3574 51.2793C42.25 52.4547 39.9902 53.3189 37.7305 53.8145L36.5625 54.068L36.1943 55.1281L35.8389 56.1768H32.5H29.1611L28.8057 55.1281L28.4375 54.068L27.2695 53.8145C25.0479 53.3305 22.2168 52.2357 20.5156 51.2102L19.8682 50.8184L18.7383 51.3484L17.6084 51.8785L15.2598 49.7467L12.9111 47.6148L13.4951 46.6123L14.0918 45.6098L13.6475 44.9875C12.4414 43.282 11.3369 40.8967 10.791 38.8686L10.5117 37.7969L9.34375 37.4627L8.18848 37.1285L8.15039 36.0799L8.1123 35.0312L10.1816 35.0543L12.251 35.0889L12.3398 35.9992ZM18.4971 36.0914C19.0176 39.4102 21.2012 42.6252 24.248 44.5842C29.2627 47.8107 35.7373 47.8107 40.752 44.5842C43.7988 42.6252 45.9824 39.4102 46.5029 36.0914L46.668 35.0889L48.6992 35.0543L50.7305 35.0312L50.6289 35.8609C50.1338 40.1937 47.6963 44.273 44.0146 46.9695C37.2227 51.9246 27.79 51.9361 20.998 46.9695C17.3545 44.3076 14.8281 40.1246 14.3711 35.9762L14.2695 35.0312L16.3008 35.0543L18.332 35.0889L18.4971 36.0914ZM27.5488 35.158C27.5488 35.2271 27.7012 35.5959 27.8916 35.9762L28.2217 36.6561L25.708 38.9492L23.1816 41.2424L22.6865 40.6432C21.6709 39.4217 20.7568 37.3936 20.4648 35.6881L20.3506 35.0312H23.9561C26.5332 35.0312 27.5488 35.0658 27.5488 35.158ZM35.293 35.0889C35.293 35.3078 34.8486 35.8725 34.4043 36.2066C33.2744 37.0939 31.7256 37.0939 30.5957 36.2066C30.1514 35.8725 29.707 35.3078 29.707 35.0889C29.707 35.0543 30.9639 35.0312 32.5 35.0312C34.0361 35.0312 35.293 35.0543 35.293 35.0889ZM44.5352 35.6881C44.2432 37.3936 43.3291 39.4217 42.3135 40.6432L41.8184 41.2424L39.292 38.9492L36.7783 36.6561L37.1084 35.9762C37.2988 35.5959 37.4512 35.2271 37.4512 35.158C37.4512 35.0658 38.4668 35.0312 41.0439 35.0312H44.6494L44.5352 35.6881ZM30.748 38.3961L31.4844 38.6611V41.8992V45.1373L30.7607 45.0336C28.8691 44.7686 26.9141 44.0541 25.4287 43.0861L24.6416 42.5791L27.1426 40.2975C28.7422 38.8455 29.707 38.0389 29.834 38.0734C29.9355 38.108 30.3545 38.2463 30.748 38.3961ZM37.8574 40.2975L40.3584 42.5676L39.6982 43.017C38.3525 43.9389 36.1182 44.7686 34.252 45.0336L33.5156 45.1373V41.8646C33.5156 39.3295 33.5537 38.6035 33.6807 38.6035C33.7568 38.6035 34.125 38.4768 34.4678 38.327C34.8232 38.1656 35.1533 38.0389 35.2295 38.0389C35.293 38.0273 36.4736 39.0529 37.8574 40.2975Z"/>
</mask>
<path d="M11.4258 1.10625C9.17871 1.54414 7.00781 3.07676 5.97949 4.95508C5.10352 6.56836 4.8877 8.05488 5.28125 9.76035C5.45898 10.5439 5.45898 10.6707 5.28125 11.074C4.83691 12.065 5.10352 13.0561 6.03027 13.8857C6.74121 14.5426 7.3252 14.75 8.4043 14.75H9.10254L9.17871 15.2686C9.33105 16.248 10.4229 17.7 11.1846 17.9189C11.3242 17.965 11.4258 18.0918 11.4258 18.2531C11.4258 18.4836 11.3115 18.5412 10.6006 18.7256C7.21094 19.5553 4.45605 22.0443 3.41504 25.2363C3.16113 26.0314 3.12305 26.4002 3.08496 29.6498L3.02148 33.1875H2.01855H1.01562V34.1094V35.0312H3.55469H6.09375V36.7598V38.4768L7.42676 38.8455L8.75977 39.2143L9.02637 40.0324C9.4834 41.5074 10.0547 42.7865 10.8799 44.2615L11.6924 45.725L11.0576 46.8658L10.4355 48.0182L13.8125 51.0834L17.2021 54.1486L18.4463 53.5725L19.6904 52.9963L21.4297 53.7799C23.1816 54.575 24.3115 54.9898 25.9746 55.4162L26.876 55.6582L27.2822 56.8682L27.6885 58.0781H32.5H37.3115L37.7178 56.8682L38.124 55.6582L38.835 55.4854C40.3076 55.1166 42.1357 54.4598 43.6846 53.7338L45.2969 52.9963L46.541 53.5725L47.7979 54.1486L51.1875 51.0834L54.5645 48.0182L53.9424 46.8658L53.3076 45.725L54.1201 44.2615C54.9453 42.7865 55.5166 41.5074 55.9736 40.0439L56.2402 39.2258L57.5732 38.857L58.9062 38.4883V36.7598V35.0312H61.4453H63.9844V34.1094V33.1875H62.9814H61.9785L61.915 29.6498C61.877 26.4002 61.8389 26.0314 61.585 25.2363C60.5439 22.0789 57.751 19.5437 54.3994 18.7256C53.6885 18.5412 53.5742 18.4836 53.5742 18.2531C53.5742 18.0918 53.6758 17.965 53.8154 17.9189C54.2217 17.8037 55.0723 16.9855 55.4023 16.3979C55.5674 16.0867 55.7451 15.5912 55.7959 15.2916L55.8848 14.75H56.583C57.6748 14.75 58.2588 14.5426 58.9697 13.8857C59.8965 13.0561 60.125 12.2033 59.7314 11.1201C59.5537 10.6477 59.5537 10.5209 59.7314 9.7373C60.1123 8.05488 59.8838 6.56836 59.0205 4.95508C57.9795 3.05371 55.8213 1.53262 53.5107 1.09473C52.2793 0.864257 47.252 0.864257 46.0205 1.09473C43.71 1.53262 41.5518 3.05371 40.5107 4.95508C40.0156 5.88848 39.6221 7.16758 39.6094 7.87051V8.20469L38.9873 7.69766C36.8672 5.98066 33.5918 5.18555 30.6973 5.69258C28.9072 6.00371 27.2695 6.69512 26.0889 7.62851C25.7842 7.87051 25.5176 8.06641 25.4795 8.06641C25.4414 8.06641 25.3779 7.7668 25.3271 7.40957C24.9971 5.00117 23.2832 2.78867 20.9346 1.74004C19.3477 1.03711 18.5859 0.921874 15.1709 0.933398C13.1777 0.933398 11.9844 0.991015 11.4258 1.10625ZM18.7256 2.93848C21.3789 3.57226 23.3594 5.83086 23.3594 8.23926C23.3594 9.34551 23.5117 9.27637 21.0996 9.2418C19.9316 9.21875 18.5986 9.13809 18.1416 9.0459C16.9863 8.83848 15.8184 8.28535 14.8027 7.49023C13.5205 6.48769 12.5176 6.2457 11.2354 6.64902C10.334 6.92559 9.57227 7.65156 9.31836 8.51582L9.10254 9.1957L8.20117 9.2418C7.70605 9.27637 7.27441 9.27637 7.24902 9.25332C7.21094 9.23027 7.16016 8.90762 7.13477 8.55039C6.93164 6.06133 8.9375 3.61836 11.7178 2.93848C12.6953 2.70801 17.71 2.70801 18.7256 2.93848ZM53.2314 2.93848C55.5166 3.48008 57.2939 5.1625 57.7637 7.22519C57.9033 7.81289 57.8906 9.16113 57.751 9.25332C57.7256 9.26484 56.5322 9.25332 55.0977 9.20723C52.3809 9.12656 51.5176 8.98828 50.248 8.40059C49.7783 8.18164 49.7529 8.18164 49.2959 8.40059C48.001 8.98828 47.1504 9.13809 44.4336 9.20723C42.999 9.2418 41.8057 9.26484 41.7803 9.2418C41.7422 9.23027 41.6914 8.90762 41.666 8.55039C41.4629 6.06133 43.4688 3.61836 46.249 2.93848C47.2139 2.70801 52.2412 2.70801 53.2314 2.93848ZM34.2139 7.54785C36.9561 8.06641 39.4062 10.1176 40.2822 12.6182C40.5488 13.3902 40.5615 13.5977 40.5615 17.8729V22.3094L40.0918 23.1736C39.8379 23.6346 39.4316 24.1877 39.2031 24.3836L38.7842 24.7523L37.5527 24.3836C36.4863 24.0725 36.3086 23.9918 36.3086 23.7729C36.3086 23.623 36.4102 23.4963 36.5498 23.4502C36.9561 23.335 37.8066 22.5168 38.1748 21.8715L38.5303 21.2607L38.5684 18.0227L38.6064 14.7846L37.6162 14.727C36.1309 14.6463 35.623 14.3928 33.9346 12.8832L32.5 11.5926L31.0654 12.8832C29.377 14.3928 28.8691 14.6463 27.3838 14.727L26.3936 14.7846L26.4316 18.0227L26.4697 21.2607L26.8252 21.8715C27.1934 22.5168 28.0439 23.335 28.4502 23.4502C28.5898 23.4963 28.6914 23.623 28.6914 23.7729C28.6914 23.9918 28.5137 24.0725 27.4473 24.3836L26.2158 24.7523L25.7969 24.3836C25.5684 24.1877 25.1621 23.6346 24.9082 23.1736L24.4385 22.3094L24.4004 18.207C24.3496 13.4709 24.4131 12.9869 25.2891 11.4082C26.9141 8.4582 30.6084 6.86797 34.2139 7.54785ZM13.5967 8.98828C15.1201 10.1176 16.834 10.809 18.5732 11.0049L19.3096 11.0855L19.2715 13.252C19.2334 15.6258 19.1953 15.7295 18.3574 16.2941C18.0273 16.5246 17.8369 16.5361 15.2344 16.5361C12.1748 16.5361 12.1494 16.5246 11.502 15.741C11.248 15.4414 11.2354 15.2455 11.1973 12.2033L11.1592 8.97676L11.54 8.64258C12.124 8.1125 12.4922 8.17012 13.5967 8.98828ZM51.0986 10.6361C51.6572 10.7975 52.5078 10.9588 52.9775 11.0049L53.8408 11.0855L53.8027 13.2635C53.7646 15.6258 53.7266 15.7295 52.8887 16.2941C52.5586 16.5246 52.3682 16.5361 49.7656 16.5361C47.1631 16.5361 46.9727 16.5246 46.6426 16.2941C45.8047 15.7295 45.7666 15.6258 45.7285 13.2635L45.6904 11.1086L46.7441 10.9818C47.3281 10.9012 48.2041 10.7168 48.6865 10.567C49.6768 10.2443 49.6895 10.2443 51.0986 10.6361ZM9.14062 11.9844V12.9062H8.44238C7.5918 12.9062 7.10938 12.5721 7.10938 11.9844C7.10938 11.3967 7.5918 11.0625 8.44238 11.0625H9.14062V11.9844ZM22.8389 11.1777C23.0674 11.2814 23.0674 11.316 22.8008 12.0996L22.5342 12.9062H21.9375H21.3281V11.9844V11.0625H21.9756C22.3311 11.0625 22.7119 11.1086 22.8389 11.1777ZM43.6719 11.9844V12.9062H43.0752H42.4658L42.1992 12.0996C41.8691 11.1432 41.9326 11.074 43.0117 11.0625H43.6719V11.9844ZM57.5732 11.3506C57.7764 11.5234 57.8906 11.7654 57.8906 11.9844C57.8906 12.5721 57.4082 12.9062 56.5576 12.9062H55.8594V11.9844V11.0625H56.5576C57.1416 11.0625 57.3193 11.1086 57.5732 11.3506ZM33.2871 14.9229C34.1885 15.6834 35.1152 16.1904 35.9658 16.3863L36.5752 16.5246L36.5371 18.7371C36.499 21.1686 36.4736 21.2607 35.623 21.8254C35.293 22.0559 35.1025 22.0674 32.5 22.0674C29.8975 22.0674 29.707 22.0559 29.377 21.8254C28.5264 21.2607 28.501 21.1686 28.4629 18.7486L28.4248 16.5361L29.1738 16.3402C30.0244 16.1098 31.1924 15.4414 31.9287 14.7615C32.1953 14.4965 32.4492 14.2891 32.4746 14.2891C32.5 14.2891 32.8682 14.5771 33.2871 14.9229ZM22.3438 17.2045V19.659L21.4932 19.2902C21.0234 19.0828 20.2871 18.8178 19.8428 18.7141C19.1572 18.5412 19.043 18.4836 19.043 18.2531C19.043 18.0918 19.1445 17.965 19.2842 17.9189C19.6904 17.8037 20.541 16.9855 20.8711 16.3979C21.0361 16.0867 21.2139 15.5912 21.2646 15.2916C21.3535 14.75 21.3535 14.75 21.8486 14.75H22.3438V17.2045ZM43.71 15.2686C43.8623 16.248 44.9541 17.7 45.7158 17.9189C45.8555 17.965 45.957 18.0918 45.957 18.2531C45.957 18.4836 45.8428 18.5412 45.1572 18.7141C44.7129 18.8178 43.9766 19.0828 43.5068 19.2902L42.6562 19.659V17.2045V14.75H43.1514C43.6338 14.75 43.6338 14.7615 43.71 15.2686ZM17.1514 19.0598C17.3545 19.8779 17.2529 20.9035 16.9355 21.2838C16.4404 21.883 16.0342 22.0674 15.2344 22.0674C14.4346 22.0674 14.0283 21.883 13.5332 21.2838C13.2158 20.9035 13.1143 19.8779 13.3174 19.0598L13.4697 18.4375H15.2344H16.999L17.1514 19.0598ZM51.6191 18.8408C51.6826 19.198 51.5938 19.4055 50.7686 20.6846C50.248 21.4682 49.8037 22.125 49.7656 22.125C49.7275 22.125 49.2832 21.4682 48.7627 20.6846C47.9375 19.4055 47.8486 19.198 47.9121 18.8408L48.001 18.4375H49.7656H51.5303L51.6191 18.8408ZM47.3789 22.1365L48.4834 23.7959L47.5059 24.6947C46.9727 25.1787 46.5156 25.5475 46.5029 25.5014C46.4521 25.3631 45.957 20.8459 45.957 20.5924C45.957 20.143 46.2998 20.5232 47.3789 22.1365ZM53.5742 20.6039C53.5742 20.8459 53.0664 25.3746 53.0283 25.5014C53.0156 25.5475 52.5586 25.1787 52.0254 24.6947L51.0479 23.7959L51.9365 22.4707C52.4189 21.7447 52.9268 20.9727 53.0664 20.7652C53.333 20.3619 53.5742 20.2812 53.5742 20.6039ZM11.2861 21.0418C11.6162 22.2172 12.3271 23.0354 13.4951 23.5885C14.0664 23.8535 14.3076 23.8996 15.2344 23.8996C16.1611 23.8996 16.4023 23.8535 16.9736 23.5885C18.1416 23.0354 18.8525 22.2172 19.1826 21.0418C19.3477 20.4311 19.3477 20.4311 20.6299 20.9727C21.7471 21.4336 22.4707 21.9521 22.4707 22.2748C22.4707 22.9432 23.2197 24.4643 23.918 25.2248L24.375 25.7203L23.2578 26.792C21.5566 28.3937 20.5918 30.2605 20.3633 32.3809L20.2744 33.1875H12.6699H5.05273L5.10352 29.7535C5.1543 26.4117 5.16699 26.308 5.49707 25.4092C6.06836 23.842 7.16016 22.5168 8.59473 21.618C9.31836 21.1686 10.7656 20.5232 11.0576 20.5117C11.1084 20.5117 11.21 20.7537 11.2861 21.0418ZM44.459 25.4207C44.7129 27.6908 44.9287 29.5807 44.9287 29.6152C44.9414 29.6498 46.0332 28.6818 47.3535 27.4834L49.7656 25.2939L52.165 27.4719C54.3486 29.4424 54.5771 29.6268 54.6406 29.3732C54.6787 29.2234 54.8945 27.3566 55.1104 25.2363C55.3389 23.116 55.5674 21.3299 55.6182 21.2723C55.7578 21.1225 56.9766 21.8945 57.6367 22.5398C58.4492 23.335 59.1348 24.3951 59.5029 25.3977C59.8457 26.308 59.8457 26.4002 59.8965 29.7535L59.9473 33.1875H52.3301H44.7256L44.6367 32.3809C44.4082 30.2605 43.4434 28.3937 41.7295 26.7689L40.5869 25.6857L40.9678 25.317C41.6787 24.6371 42.5293 22.9777 42.5293 22.2863C42.5293 22.0904 42.707 21.8945 43.1387 21.6064C43.4688 21.3875 43.7861 21.2262 43.8623 21.2492C43.9258 21.2607 44.1924 23.1391 44.459 25.4207ZM34.417 24.591C34.6201 25.4092 34.5186 26.4348 34.2012 26.815C33.7061 27.4143 33.2998 27.5986 32.5 27.5986C31.7002 27.5986 31.2939 27.4143 30.7988 26.815C30.4814 26.4348 30.3799 25.4092 30.583 24.591L30.7354 23.9687H32.5H34.2646L34.417 24.591ZM28.5518 26.573C28.8818 27.7484 29.5928 28.5666 30.7607 29.1197C31.332 29.3848 31.5732 29.4309 32.5 29.4309C33.4268 29.4309 33.668 29.3848 34.2393 29.1197C35.4072 28.5666 36.1182 27.7484 36.4482 26.573C36.6133 25.9623 36.6006 25.9623 37.8193 26.4578C40.4346 27.518 42.2754 29.8342 42.6055 32.4846L42.6943 33.1875H32.5H22.3057L22.3945 32.4846C22.6738 30.3297 23.9561 28.3361 25.8477 27.1607C26.584 26.7113 28.0312 26.0545 28.3232 26.043C28.374 26.043 28.4756 26.285 28.5518 26.573ZM12.3398 35.9992C12.6318 38.8455 13.8125 41.8186 15.7041 44.4229C16.2881 45.218 17.0625 46.0361 18.2051 47.0848C20.7314 49.3664 23.0166 50.657 26.2666 51.625C28.5391 52.2934 29.9102 52.4893 32.5 52.4893C35.0898 52.4893 36.4609 52.2934 38.7334 51.625C41.9834 50.657 44.2686 49.3664 46.7949 47.0848C47.9375 46.0361 48.7119 45.218 49.2959 44.4229C51.1875 41.8186 52.3682 38.8455 52.6602 35.9992L52.749 35.0889L54.8184 35.0543L56.8877 35.0312L56.8496 36.0799L56.8115 37.14L55.6562 37.4627L54.4883 37.7969L54.209 38.857C53.6631 40.8967 52.5586 43.282 51.3652 44.976L50.9209 45.5982L51.5049 46.6123L52.0762 47.6264L49.7275 49.7582L47.3789 51.89L46.2871 51.36L45.1826 50.8299L44.3574 51.2793C42.25 52.4547 39.9902 53.3189 37.7305 53.8145L36.5625 54.068L36.1943 55.1281L35.8389 56.1768H32.5H29.1611L28.8057 55.1281L28.4375 54.068L27.2695 53.8145C25.0479 53.3305 22.2168 52.2357 20.5156 51.2102L19.8682 50.8184L18.7383 51.3484L17.6084 51.8785L15.2598 49.7467L12.9111 47.6148L13.4951 46.6123L14.0918 45.6098L13.6475 44.9875C12.4414 43.282 11.3369 40.8967 10.791 38.8686L10.5117 37.7969L9.34375 37.4627L8.18848 37.1285L8.15039 36.0799L8.1123 35.0312L10.1816 35.0543L12.251 35.0889L12.3398 35.9992ZM18.4971 36.0914C19.0176 39.4102 21.2012 42.6252 24.248 44.5842C29.2627 47.8107 35.7373 47.8107 40.752 44.5842C43.7988 42.6252 45.9824 39.4102 46.5029 36.0914L46.668 35.0889L48.6992 35.0543L50.7305 35.0312L50.6289 35.8609C50.1338 40.1937 47.6963 44.273 44.0146 46.9695C37.2227 51.9246 27.79 51.9361 20.998 46.9695C17.3545 44.3076 14.8281 40.1246 14.3711 35.9762L14.2695 35.0312L16.3008 35.0543L18.332 35.0889L18.4971 36.0914ZM27.5488 35.158C27.5488 35.2271 27.7012 35.5959 27.8916 35.9762L28.2217 36.6561L25.708 38.9492L23.1816 41.2424L22.6865 40.6432C21.6709 39.4217 20.7568 37.3936 20.4648 35.6881L20.3506 35.0312H23.9561C26.5332 35.0312 27.5488 35.0658 27.5488 35.158ZM35.293 35.0889C35.293 35.3078 34.8486 35.8725 34.4043 36.2066C33.2744 37.0939 31.7256 37.0939 30.5957 36.2066C30.1514 35.8725 29.707 35.3078 29.707 35.0889C29.707 35.0543 30.9639 35.0312 32.5 35.0312C34.0361 35.0312 35.293 35.0543 35.293 35.0889ZM44.5352 35.6881C44.2432 37.3936 43.3291 39.4217 42.3135 40.6432L41.8184 41.2424L39.292 38.9492L36.7783 36.6561L37.1084 35.9762C37.2988 35.5959 37.4512 35.2271 37.4512 35.158C37.4512 35.0658 38.4668 35.0312 41.0439 35.0312H44.6494L44.5352 35.6881ZM30.748 38.3961L31.4844 38.6611V41.8992V45.1373L30.7607 45.0336C28.8691 44.7686 26.9141 44.0541 25.4287 43.0861L24.6416 42.5791L27.1426 40.2975C28.7422 38.8455 29.707 38.0389 29.834 38.0734C29.9355 38.108 30.3545 38.2463 30.748 38.3961ZM37.8574 40.2975L40.3584 42.5676L39.6982 43.017C38.3525 43.9389 36.1182 44.7686 34.252 45.0336L33.5156 45.1373V41.8646C33.5156 39.3295 33.5537 38.6035 33.6807 38.6035C33.7568 38.6035 34.125 38.4768 34.4678 38.327C34.8232 38.1656 35.1533 38.0389 35.2295 38.0389C35.293 38.0273 36.4736 39.0529 37.8574 40.2975Z" fill="black"/>
<path d="M11.4258 1.10625C9.17871 1.54414 7.00781 3.07676 5.97949 4.95508C5.10352 6.56836 4.8877 8.05488 5.28125 9.76035C5.45898 10.5439 5.45898 10.6707 5.28125 11.074C4.83691 12.065 5.10352 13.0561 6.03027 13.8857C6.74121 14.5426 7.3252 14.75 8.4043 14.75H9.10254L9.17871 15.2686C9.33105 16.248 10.4229 17.7 11.1846 17.9189C11.3242 17.965 11.4258 18.0918 11.4258 18.2531C11.4258 18.4836 11.3115 18.5412 10.6006 18.7256C7.21094 19.5553 4.45605 22.0443 3.41504 25.2363C3.16113 26.0314 3.12305 26.4002 3.08496 29.6498L3.02148 33.1875H2.01855H1.01562V34.1094V35.0312H3.55469H6.09375V36.7598V38.4768L7.42676 38.8455L8.75977 39.2143L9.02637 40.0324C9.4834 41.5074 10.0547 42.7865 10.8799 44.2615L11.6924 45.725L11.0576 46.8658L10.4355 48.0182L13.8125 51.0834L17.2021 54.1486L18.4463 53.5725L19.6904 52.9963L21.4297 53.7799C23.1816 54.575 24.3115 54.9898 25.9746 55.4162L26.876 55.6582L27.2822 56.8682L27.6885 58.0781H32.5H37.3115L37.7178 56.8682L38.124 55.6582L38.835 55.4854C40.3076 55.1166 42.1357 54.4598 43.6846 53.7338L45.2969 52.9963L46.541 53.5725L47.7979 54.1486L51.1875 51.0834L54.5645 48.0182L53.9424 46.8658L53.3076 45.725L54.1201 44.2615C54.9453 42.7865 55.5166 41.5074 55.9736 40.0439L56.2402 39.2258L57.5732 38.857L58.9062 38.4883V36.7598V35.0312H61.4453H63.9844V34.1094V33.1875H62.9814H61.9785L61.915 29.6498C61.877 26.4002 61.8389 26.0314 61.585 25.2363C60.5439 22.0789 57.751 19.5437 54.3994 18.7256C53.6885 18.5412 53.5742 18.4836 53.5742 18.2531C53.5742 18.0918 53.6758 17.965 53.8154 17.9189C54.2217 17.8037 55.0723 16.9855 55.4023 16.3979C55.5674 16.0867 55.7451 15.5912 55.7959 15.2916L55.8848 14.75H56.583C57.6748 14.75 58.2588 14.5426 58.9697 13.8857C59.8965 13.0561 60.125 12.2033 59.7314 11.1201C59.5537 10.6477 59.5537 10.5209 59.7314 9.7373C60.1123 8.05488 59.8838 6.56836 59.0205 4.95508C57.9795 3.05371 55.8213 1.53262 53.5107 1.09473C52.2793 0.864257 47.252 0.864257 46.0205 1.09473C43.71 1.53262 41.5518 3.05371 40.5107 4.95508C40.0156 5.88848 39.6221 7.16758 39.6094 7.87051V8.20469L38.9873 7.69766C36.8672 5.98066 33.5918 5.18555 30.6973 5.69258C28.9072 6.00371 27.2695 6.69512 26.0889 7.62851C25.7842 7.87051 25.5176 8.06641 25.4795 8.06641C25.4414 8.06641 25.3779 7.7668 25.3271 7.40957C24.9971 5.00117 23.2832 2.78867 20.9346 1.74004C19.3477 1.03711 18.5859 0.921874 15.1709 0.933398C13.1777 0.933398 11.9844 0.991015 11.4258 1.10625ZM18.7256 2.93848C21.3789 3.57226 23.3594 5.83086 23.3594 8.23926C23.3594 9.34551 23.5117 9.27637 21.0996 9.2418C19.9316 9.21875 18.5986 9.13809 18.1416 9.0459C16.9863 8.83848 15.8184 8.28535 14.8027 7.49023C13.5205 6.48769 12.5176 6.2457 11.2354 6.64902C10.334 6.92559 9.57227 7.65156 9.31836 8.51582L9.10254 9.1957L8.20117 9.2418C7.70605 9.27637 7.27441 9.27637 7.24902 9.25332C7.21094 9.23027 7.16016 8.90762 7.13477 8.55039C6.93164 6.06133 8.9375 3.61836 11.7178 2.93848C12.6953 2.70801 17.71 2.70801 18.7256 2.93848ZM53.2314 2.93848C55.5166 3.48008 57.2939 5.1625 57.7637 7.22519C57.9033 7.81289 57.8906 9.16113 57.751 9.25332C57.7256 9.26484 56.5322 9.25332 55.0977 9.20723C52.3809 9.12656 51.5176 8.98828 50.248 8.40059C49.7783 8.18164 49.7529 8.18164 49.2959 8.40059C48.001 8.98828 47.1504 9.13809 44.4336 9.20723C42.999 9.2418 41.8057 9.26484 41.7803 9.2418C41.7422 9.23027 41.6914 8.90762 41.666 8.55039C41.4629 6.06133 43.4688 3.61836 46.249 2.93848C47.2139 2.70801 52.2412 2.70801 53.2314 2.93848ZM34.2139 7.54785C36.9561 8.06641 39.4062 10.1176 40.2822 12.6182C40.5488 13.3902 40.5615 13.5977 40.5615 17.8729V22.3094L40.0918 23.1736C39.8379 23.6346 39.4316 24.1877 39.2031 24.3836L38.7842 24.7523L37.5527 24.3836C36.4863 24.0725 36.3086 23.9918 36.3086 23.7729C36.3086 23.623 36.4102 23.4963 36.5498 23.4502C36.9561 23.335 37.8066 22.5168 38.1748 21.8715L38.5303 21.2607L38.5684 18.0227L38.6064 14.7846L37.6162 14.727C36.1309 14.6463 35.623 14.3928 33.9346 12.8832L32.5 11.5926L31.0654 12.8832C29.377 14.3928 28.8691 14.6463 27.3838 14.727L26.3936 14.7846L26.4316 18.0227L26.4697 21.2607L26.8252 21.8715C27.1934 22.5168 28.0439 23.335 28.4502 23.4502C28.5898 23.4963 28.6914 23.623 28.6914 23.7729C28.6914 23.9918 28.5137 24.0725 27.4473 24.3836L26.2158 24.7523L25.7969 24.3836C25.5684 24.1877 25.1621 23.6346 24.9082 23.1736L24.4385 22.3094L24.4004 18.207C24.3496 13.4709 24.4131 12.9869 25.2891 11.4082C26.9141 8.4582 30.6084 6.86797 34.2139 7.54785ZM13.5967 8.98828C15.1201 10.1176 16.834 10.809 18.5732 11.0049L19.3096 11.0855L19.2715 13.252C19.2334 15.6258 19.1953 15.7295 18.3574 16.2941C18.0273 16.5246 17.8369 16.5361 15.2344 16.5361C12.1748 16.5361 12.1494 16.5246 11.502 15.741C11.248 15.4414 11.2354 15.2455 11.1973 12.2033L11.1592 8.97676L11.54 8.64258C12.124 8.1125 12.4922 8.17012 13.5967 8.98828ZM51.0986 10.6361C51.6572 10.7975 52.5078 10.9588 52.9775 11.0049L53.8408 11.0855L53.8027 13.2635C53.7646 15.6258 53.7266 15.7295 52.8887 16.2941C52.5586 16.5246 52.3682 16.5361 49.7656 16.5361C47.1631 16.5361 46.9727 16.5246 46.6426 16.2941C45.8047 15.7295 45.7666 15.6258 45.7285 13.2635L45.6904 11.1086L46.7441 10.9818C47.3281 10.9012 48.2041 10.7168 48.6865 10.567C49.6768 10.2443 49.6895 10.2443 51.0986 10.6361ZM9.14062 11.9844V12.9062H8.44238C7.5918 12.9062 7.10938 12.5721 7.10938 11.9844C7.10938 11.3967 7.5918 11.0625 8.44238 11.0625H9.14062V11.9844ZM22.8389 11.1777C23.0674 11.2814 23.0674 11.316 22.8008 12.0996L22.5342 12.9062H21.9375H21.3281V11.9844V11.0625H21.9756C22.3311 11.0625 22.7119 11.1086 22.8389 11.1777ZM43.6719 11.9844V12.9062H43.0752H42.4658L42.1992 12.0996C41.8691 11.1432 41.9326 11.074 43.0117 11.0625H43.6719V11.9844ZM57.5732 11.3506C57.7764 11.5234 57.8906 11.7654 57.8906 11.9844C57.8906 12.5721 57.4082 12.9062 56.5576 12.9062H55.8594V11.9844V11.0625H56.5576C57.1416 11.0625 57.3193 11.1086 57.5732 11.3506ZM33.2871 14.9229C34.1885 15.6834 35.1152 16.1904 35.9658 16.3863L36.5752 16.5246L36.5371 18.7371C36.499 21.1686 36.4736 21.2607 35.623 21.8254C35.293 22.0559 35.1025 22.0674 32.5 22.0674C29.8975 22.0674 29.707 22.0559 29.377 21.8254C28.5264 21.2607 28.501 21.1686 28.4629 18.7486L28.4248 16.5361L29.1738 16.3402C30.0244 16.1098 31.1924 15.4414 31.9287 14.7615C32.1953 14.4965 32.4492 14.2891 32.4746 14.2891C32.5 14.2891 32.8682 14.5771 33.2871 14.9229ZM22.3438 17.2045V19.659L21.4932 19.2902C21.0234 19.0828 20.2871 18.8178 19.8428 18.7141C19.1572 18.5412 19.043 18.4836 19.043 18.2531C19.043 18.0918 19.1445 17.965 19.2842 17.9189C19.6904 17.8037 20.541 16.9855 20.8711 16.3979C21.0361 16.0867 21.2139 15.5912 21.2646 15.2916C21.3535 14.75 21.3535 14.75 21.8486 14.75H22.3438V17.2045ZM43.71 15.2686C43.8623 16.248 44.9541 17.7 45.7158 17.9189C45.8555 17.965 45.957 18.0918 45.957 18.2531C45.957 18.4836 45.8428 18.5412 45.1572 18.7141C44.7129 18.8178 43.9766 19.0828 43.5068 19.2902L42.6562 19.659V17.2045V14.75H43.1514C43.6338 14.75 43.6338 14.7615 43.71 15.2686ZM17.1514 19.0598C17.3545 19.8779 17.2529 20.9035 16.9355 21.2838C16.4404 21.883 16.0342 22.0674 15.2344 22.0674C14.4346 22.0674 14.0283 21.883 13.5332 21.2838C13.2158 20.9035 13.1143 19.8779 13.3174 19.0598L13.4697 18.4375H15.2344H16.999L17.1514 19.0598ZM51.6191 18.8408C51.6826 19.198 51.5938 19.4055 50.7686 20.6846C50.248 21.4682 49.8037 22.125 49.7656 22.125C49.7275 22.125 49.2832 21.4682 48.7627 20.6846C47.9375 19.4055 47.8486 19.198 47.9121 18.8408L48.001 18.4375H49.7656H51.5303L51.6191 18.8408ZM47.3789 22.1365L48.4834 23.7959L47.5059 24.6947C46.9727 25.1787 46.5156 25.5475 46.5029 25.5014C46.4521 25.3631 45.957 20.8459 45.957 20.5924C45.957 20.143 46.2998 20.5232 47.3789 22.1365ZM53.5742 20.6039C53.5742 20.8459 53.0664 25.3746 53.0283 25.5014C53.0156 25.5475 52.5586 25.1787 52.0254 24.6947L51.0479 23.7959L51.9365 22.4707C52.4189 21.7447 52.9268 20.9727 53.0664 20.7652C53.333 20.3619 53.5742 20.2812 53.5742 20.6039ZM11.2861 21.0418C11.6162 22.2172 12.3271 23.0354 13.4951 23.5885C14.0664 23.8535 14.3076 23.8996 15.2344 23.8996C16.1611 23.8996 16.4023 23.8535 16.9736 23.5885C18.1416 23.0354 18.8525 22.2172 19.1826 21.0418C19.3477 20.4311 19.3477 20.4311 20.6299 20.9727C21.7471 21.4336 22.4707 21.9521 22.4707 22.2748C22.4707 22.9432 23.2197 24.4643 23.918 25.2248L24.375 25.7203L23.2578 26.792C21.5566 28.3937 20.5918 30.2605 20.3633 32.3809L20.2744 33.1875H12.6699H5.05273L5.10352 29.7535C5.1543 26.4117 5.16699 26.308 5.49707 25.4092C6.06836 23.842 7.16016 22.5168 8.59473 21.618C9.31836 21.1686 10.7656 20.5232 11.0576 20.5117C11.1084 20.5117 11.21 20.7537 11.2861 21.0418ZM44.459 25.4207C44.7129 27.6908 44.9287 29.5807 44.9287 29.6152C44.9414 29.6498 46.0332 28.6818 47.3535 27.4834L49.7656 25.2939L52.165 27.4719C54.3486 29.4424 54.5771 29.6268 54.6406 29.3732C54.6787 29.2234 54.8945 27.3566 55.1104 25.2363C55.3389 23.116 55.5674 21.3299 55.6182 21.2723C55.7578 21.1225 56.9766 21.8945 57.6367 22.5398C58.4492 23.335 59.1348 24.3951 59.5029 25.3977C59.8457 26.308 59.8457 26.4002 59.8965 29.7535L59.9473 33.1875H52.3301H44.7256L44.6367 32.3809C44.4082 30.2605 43.4434 28.3937 41.7295 26.7689L40.5869 25.6857L40.9678 25.317C41.6787 24.6371 42.5293 22.9777 42.5293 22.2863C42.5293 22.0904 42.707 21.8945 43.1387 21.6064C43.4688 21.3875 43.7861 21.2262 43.8623 21.2492C43.9258 21.2607 44.1924 23.1391 44.459 25.4207ZM34.417 24.591C34.6201 25.4092 34.5186 26.4348 34.2012 26.815C33.7061 27.4143 33.2998 27.5986 32.5 27.5986C31.7002 27.5986 31.2939 27.4143 30.7988 26.815C30.4814 26.4348 30.3799 25.4092 30.583 24.591L30.7354 23.9687H32.5H34.2646L34.417 24.591ZM28.5518 26.573C28.8818 27.7484 29.5928 28.5666 30.7607 29.1197C31.332 29.3848 31.5732 29.4309 32.5 29.4309C33.4268 29.4309 33.668 29.3848 34.2393 29.1197C35.4072 28.5666 36.1182 27.7484 36.4482 26.573C36.6133 25.9623 36.6006 25.9623 37.8193 26.4578C40.4346 27.518 42.2754 29.8342 42.6055 32.4846L42.6943 33.1875H32.5H22.3057L22.3945 32.4846C22.6738 30.3297 23.9561 28.3361 25.8477 27.1607C26.584 26.7113 28.0312 26.0545 28.3232 26.043C28.374 26.043 28.4756 26.285 28.5518 26.573ZM12.3398 35.9992C12.6318 38.8455 13.8125 41.8186 15.7041 44.4229C16.2881 45.218 17.0625 46.0361 18.2051 47.0848C20.7314 49.3664 23.0166 50.657 26.2666 51.625C28.5391 52.2934 29.9102 52.4893 32.5 52.4893C35.0898 52.4893 36.4609 52.2934 38.7334 51.625C41.9834 50.657 44.2686 49.3664 46.7949 47.0848C47.9375 46.0361 48.7119 45.218 49.2959 44.4229C51.1875 41.8186 52.3682 38.8455 52.6602 35.9992L52.749 35.0889L54.8184 35.0543L56.8877 35.0312L56.8496 36.0799L56.8115 37.14L55.6562 37.4627L54.4883 37.7969L54.209 38.857C53.6631 40.8967 52.5586 43.282 51.3652 44.976L50.9209 45.5982L51.5049 46.6123L52.0762 47.6264L49.7275 49.7582L47.3789 51.89L46.2871 51.36L45.1826 50.8299L44.3574 51.2793C42.25 52.4547 39.9902 53.3189 37.7305 53.8145L36.5625 54.068L36.1943 55.1281L35.8389 56.1768H32.5H29.1611L28.8057 55.1281L28.4375 54.068L27.2695 53.8145C25.0479 53.3305 22.2168 52.2357 20.5156 51.2102L19.8682 50.8184L18.7383 51.3484L17.6084 51.8785L15.2598 49.7467L12.9111 47.6148L13.4951 46.6123L14.0918 45.6098L13.6475 44.9875C12.4414 43.282 11.3369 40.8967 10.791 38.8686L10.5117 37.7969L9.34375 37.4627L8.18848 37.1285L8.15039 36.0799L8.1123 35.0312L10.1816 35.0543L12.251 35.0889L12.3398 35.9992ZM18.4971 36.0914C19.0176 39.4102 21.2012 42.6252 24.248 44.5842C29.2627 47.8107 35.7373 47.8107 40.752 44.5842C43.7988 42.6252 45.9824 39.4102 46.5029 36.0914L46.668 35.0889L48.6992 35.0543L50.7305 35.0312L50.6289 35.8609C50.1338 40.1937 47.6963 44.273 44.0146 46.9695C37.2227 51.9246 27.79 51.9361 20.998 46.9695C17.3545 44.3076 14.8281 40.1246 14.3711 35.9762L14.2695 35.0312L16.3008 35.0543L18.332 35.0889L18.4971 36.0914ZM27.5488 35.158C27.5488 35.2271 27.7012 35.5959 27.8916 35.9762L28.2217 36.6561L25.708 38.9492L23.1816 41.2424L22.6865 40.6432C21.6709 39.4217 20.7568 37.3936 20.4648 35.6881L20.3506 35.0312H23.9561C26.5332 35.0312 27.5488 35.0658 27.5488 35.158ZM35.293 35.0889C35.293 35.3078 34.8486 35.8725 34.4043 36.2066C33.2744 37.0939 31.7256 37.0939 30.5957 36.2066C30.1514 35.8725 29.707 35.3078 29.707 35.0889C29.707 35.0543 30.9639 35.0312 32.5 35.0312C34.0361 35.0312 35.293 35.0543 35.293 35.0889ZM44.5352 35.6881C44.2432 37.3936 43.3291 39.4217 42.3135 40.6432L41.8184 41.2424L39.292 38.9492L36.7783 36.6561L37.1084 35.9762C37.2988 35.5959 37.4512 35.2271 37.4512 35.158C37.4512 35.0658 38.4668 35.0312 41.0439 35.0312H44.6494L44.5352 35.6881ZM30.748 38.3961L31.4844 38.6611V41.8992V45.1373L30.7607 45.0336C28.8691 44.7686 26.9141 44.0541 25.4287 43.0861L24.6416 42.5791L27.1426 40.2975C28.7422 38.8455 29.707 38.0389 29.834 38.0734C29.9355 38.108 30.3545 38.2463 30.748 38.3961ZM37.8574 40.2975L40.3584 42.5676L39.6982 43.017C38.3525 43.9389 36.1182 44.7686 34.252 45.0336L33.5156 45.1373V41.8646C33.5156 39.3295 33.5537 38.6035 33.6807 38.6035C33.7568 38.6035 34.125 38.4768 34.4678 38.327C34.8232 38.1656 35.1533 38.0389 35.2295 38.0389C35.293 38.0273 36.4736 39.0529 37.8574 40.2975Z" stroke="black" mask="url(#path-1-outside-1_435_23)"/>
</svg>
