<svg width="25" height="25" viewBox="0 0 25 25" fill="none" xmlns="http://www.w3.org/2000/svg">
<g clip-path="url(#clip0_298_7)">
<path d="M21.8749 4.16667H18.6458C18.404 2.99105 17.7643 1.93474 16.8346 1.17575C15.9048 0.41676 14.7418 0.00151513 13.5416 0L11.4583 0C10.258 0.00151513 9.09504 0.41676 8.16528 1.17575C7.23552 1.93474 6.59585 2.99105 6.35409 4.16667H3.12492C2.84865 4.16667 2.5837 4.27641 2.38835 4.47176C2.193 4.66711 2.08325 4.93207 2.08325 5.20833C2.08325 5.4846 2.193 5.74955 2.38835 5.9449C2.5837 6.14025 2.84865 6.25 3.12492 6.25H4.16659V19.7917C4.16824 21.1725 4.7175 22.4963 5.6939 23.4727C6.67029 24.4491 7.99409 24.9983 9.37492 25H15.6249C17.0058 24.9983 18.3296 24.4491 19.3059 23.4727C20.2823 22.4963 20.8316 21.1725 20.8333 19.7917V6.25H21.8749C22.1512 6.25 22.4161 6.14025 22.6115 5.9449C22.8068 5.74955 22.9166 5.4846 22.9166 5.20833C22.9166 4.93207 22.8068 4.66711 22.6115 4.47176C22.4161 4.27641 22.1512 4.16667 21.8749 4.16667ZM11.4583 2.08333H13.5416C14.1877 2.08412 14.8178 2.28477 15.3454 2.65775C15.8729 3.03074 16.2722 3.5578 16.4885 4.16667H8.51138C8.72761 3.5578 9.1269 3.03074 9.65449 2.65775C10.1821 2.28477 10.8121 2.08412 11.4583 2.08333ZM18.7499 19.7917C18.7499 20.6205 18.4207 21.4153 17.8346 22.0014C17.2486 22.5874 16.4537 22.9167 15.6249 22.9167H9.37492C8.54612 22.9167 7.75126 22.5874 7.16521 22.0014C6.57916 21.4153 6.24992 20.6205 6.24992 19.7917V6.25H18.7499V19.7917Z" fill="#FD4B4B"/>
<path d="M10.4167 18.75C10.6929 18.75 10.9579 18.6402 11.1532 18.4449C11.3486 18.2495 11.4583 17.9846 11.4583 17.7083V11.4583C11.4583 11.182 11.3486 10.9171 11.1532 10.7217C10.9579 10.5264 10.6929 10.4166 10.4167 10.4166C10.1404 10.4166 9.87545 10.5264 9.6801 10.7217C9.48475 10.9171 9.375 11.182 9.375 11.4583V17.7083C9.375 17.9846 9.48475 18.2495 9.6801 18.4449C9.87545 18.6402 10.1404 18.75 10.4167 18.75Z" fill="#FD4B4B"/>
<path d="M14.5834 18.75C14.8597 18.75 15.1246 18.6402 15.32 18.4449C15.5153 18.2495 15.6251 17.9846 15.6251 17.7083V11.4583C15.6251 11.182 15.5153 10.9171 15.32 10.7217C15.1246 10.5264 14.8597 10.4166 14.5834 10.4166C14.3072 10.4166 14.0422 10.5264 13.8468 10.7217C13.6515 10.9171 13.5417 11.182 13.5417 11.4583V17.7083C13.5417 17.9846 13.6515 18.2495 13.8468 18.4449C14.0422 18.6402 14.3072 18.75 14.5834 18.75Z" fill="#FD4B4B"/>
</g>
<defs>
<clipPath id="clip0_298_7">
<rect width="25" height="25" fill="white"/>
</clipPath>
</defs>
</svg>
