<svg width="25" height="25" viewBox="0 0 25 25" fill="none" xmlns="http://www.w3.org/2000/svg">
<g clip-path="url(#clip0_298_12)">
<path d="M19.4333 0.968784L6.73327 13.6688C6.24821 14.1512 5.86367 14.7251 5.6019 15.3572C5.34013 15.9892 5.20634 16.6669 5.20827 17.3511V18.75C5.20827 19.0263 5.31802 19.2913 5.51337 19.4866C5.70872 19.682 5.97367 19.7917 6.24994 19.7917H7.6489C8.33303 19.7936 9.01074 19.6598 9.64281 19.3981C10.2749 19.1363 10.8487 18.7518 11.3312 18.2667L24.0312 5.5667C24.6399 4.95646 24.9818 4.1297 24.9818 3.26774C24.9818 2.40579 24.6399 1.57902 24.0312 0.968784C23.4121 0.377007 22.5887 0.0467529 21.7322 0.0467529C20.8758 0.0467529 20.0524 0.377007 19.4333 0.968784ZM22.5583 4.09378L9.85827 16.7938C9.2709 17.3776 8.47703 17.7062 7.6489 17.7084H7.29161V17.3511C7.29378 16.5229 7.62241 15.7291 8.20619 15.1417L20.9062 2.4417C21.1287 2.22915 21.4245 2.11055 21.7322 2.11055C22.0399 2.11055 22.3358 2.22915 22.5583 2.4417C22.777 2.66099 22.8998 2.95805 22.8998 3.26774C22.8998 3.57744 22.777 3.8745 22.5583 4.09378Z" fill="#114D9A"/>
<path d="M23.9583 9.35313C23.6821 9.35313 23.4171 9.46287 23.2218 9.65822C23.0264 9.85357 22.9167 10.1185 22.9167 10.3948V15.625H18.75C17.9212 15.625 17.1263 15.9542 16.5403 16.5403C15.9542 17.1263 15.625 17.9212 15.625 18.75V22.9167H5.20833C4.37953 22.9167 3.58468 22.5874 2.99863 22.0014C2.41257 21.4153 2.08333 20.6205 2.08333 19.7917V5.20833C2.08333 4.37953 2.41257 3.58468 2.99863 2.99863C3.58468 2.41257 4.37953 2.08333 5.20833 2.08333H14.6271C14.9034 2.08333 15.1683 1.97359 15.3637 1.77824C15.559 1.58289 15.6688 1.31793 15.6688 1.04167C15.6688 0.7654 15.559 0.500448 15.3637 0.305097C15.1683 0.109747 14.9034 0 14.6271 0L5.20833 0C3.82751 0.00165402 2.50371 0.550919 1.52731 1.52731C0.550919 2.50371 0.00165402 3.82751 0 5.20833L0 19.7917C0.00165402 21.1725 0.550919 22.4963 1.52731 23.4727C2.50371 24.4491 3.82751 24.9983 5.20833 25H17.024C17.7082 25.002 18.3861 24.8682 19.0184 24.6064C19.6506 24.3447 20.2247 23.9601 20.7073 23.475L23.474 20.7063C23.9591 20.2238 24.3438 19.65 24.6057 19.0179C24.8677 18.3859 25.0017 17.7081 25 17.024V10.3948C25 10.1185 24.8903 9.85357 24.6949 9.65822C24.4996 9.46287 24.2346 9.35313 23.9583 9.35313ZM19.2344 22.0021C18.8156 22.4198 18.2861 22.709 17.7083 22.8354V18.75C17.7083 18.4737 17.8181 18.2088 18.0134 18.0134C18.2088 17.8181 18.4737 17.7083 18.75 17.7083H22.8385C22.7097 18.2849 22.4209 18.8135 22.0052 19.2333L19.2344 22.0021Z" fill="#114D9A"/>
</g>
<defs>
<clipPath id="clip0_298_12">
<rect width="25" height="25" fill="white"/>
</clipPath>
</defs>
</svg>
