<svg width="59" height="59" viewBox="0 0 59 59" fill="none" xmlns="http://www.w3.org/2000/svg">
<g clip-path="url(#clip0_242_2)">
<path d="M54.575 5.31739C53.193 4.1618 51.5735 3.32464 49.8316 2.86536C48.0896 2.40608 46.2679 2.33595 44.4958 2.65993L35.1001 4.36602C32.9308 4.76437 30.9585 5.88041 29.5 7.53481C28.0377 5.87756 26.0597 4.76126 23.8852 4.36602L14.5042 2.65993C12.7321 2.33566 10.9104 2.40488 9.16805 2.86269C7.42569 3.32049 5.80527 4.15569 4.42147 5.30916C3.03768 6.46264 1.92435 7.90619 1.16029 9.53763C0.39623 11.1691 0.000119997 12.9485 0 14.75L0 41.2828C0.000141246 44.161 1.01032 46.9479 2.85445 49.1577C4.69859 51.3676 7.25973 52.8602 10.0915 53.3754L25.5445 56.1852C28.1601 56.6605 30.8399 56.6605 33.4555 56.1852L48.9208 53.3754C51.7503 52.8576 54.3086 51.3639 56.1503 49.1543C57.9919 46.9448 59.0004 44.1593 59 41.2828V14.75C59.0011 12.9492 58.6052 11.1702 57.8403 9.53981C57.0755 7.90943 55.9606 6.46773 54.575 5.31739ZM27.0417 51.448C26.8352 51.4185 26.6287 51.3841 26.4222 51.3472L10.9715 48.5398C9.27225 48.2306 7.73538 47.3349 6.62887 46.0087C5.52236 44.6825 4.91641 43.01 4.91667 41.2828V14.75C4.91667 12.794 5.69367 10.9182 7.07675 9.5351C8.45984 8.15202 10.3357 7.37502 12.2917 7.37502C12.7368 7.37608 13.1811 7.41639 13.6192 7.49547L23.01 9.21631C24.1399 9.42306 25.1617 10.0189 25.8982 10.9004C26.6346 11.7819 27.0392 12.8934 27.0417 14.042V51.448ZM54.0833 41.2828C54.0836 43.01 53.4776 44.6825 52.3711 46.0087C51.2646 47.3349 49.7277 48.2306 48.0285 48.5398L32.5778 51.3472C32.3713 51.3841 32.1648 51.4185 31.9583 51.448V14.042C31.9582 12.8906 32.3621 11.7756 33.0998 10.8914C33.8375 10.0073 34.8621 9.41013 35.9949 9.20402L45.3882 7.48318C46.452 7.28964 47.5453 7.33237 48.5907 7.60834C49.6361 7.88431 50.6081 8.38677 51.4377 9.08013C52.2674 9.77349 52.9344 10.6408 53.3916 11.6206C53.8488 12.6004 54.0849 13.6688 54.0833 14.75V41.2828Z" fill="black"/>
</g>
<defs>
<clipPath id="clip0_242_2">
<rect width="59" height="59" fill="white"/>
</clipPath>
</defs>
</svg>
